<svg width="800" height="193.55" clip-rule="evenodd" fill-rule="evenodd" image-rendering="optimizeQuality" shape-rendering="geometricPrecision" text-rendering="geometricPrecision" space="preserve" version="1.1" viewBox="0 0 800 193.55" xmlns="http://www.w3.org/2000/svg">
 <g transform="matrix(.95478 0 0 .95478 0 -.0014627)" fill="#2461f2" font-family="Intro" font-weight="bold" letter-spacing="0px" word-spacing="0px">
  <path d="m77.634 114.7c30.978-21.002 24.227-84.933-23.903-85.108h-53.731v122.51h31.328v-32.054h12.277l19.002 32.054h35.004v-4.5504zm-23.903-22.477h-22.402v-34.628c7.3508 0 15.051-0.16007 22.402 0 17.852 0.16008 16.91 33.119 0 34.628z"/>
  <path d="m193 31.914h-80.247v120.89h80.126v-25.638h-48.108v-24.999h43.958v-24.109h-43.958v-21.094h48.229z"/>
  <path d="m241.52 152.11v-46.73c4.0253 0 7.8758 0 12.076-0.70114l26.953 47.43h34.828v-4.9006l-33.253-53.905c24.327-15.577 23.627-38.679 23.627-63.707h-32.203c0 22.928 1.5752 46.38-29.753 46.38h-2.2763v-46.38h-31.853v122.51h31.853z"/>
  <path d="m414.24 152.11h30.628v-4.5504l-55.306-119.54h-13.476l-55.131 119.54v4.5504h30.628l7.176-15.402h48.305zm-17.327-42.18h-28.003l13.827-32.203z"/>
 </g>
 <g transform="matrix(3.6135 0 0 3.6135 482.98 -8.9859)">
  <path class="fil0" d="m87.732 26.267c0-9.8302-8.0044-17.827-17.841-17.827h-8.6416v7.7372h8.6416c5.5675 0 10.099 4.5255 10.099 10.09 0 5.6171-4.5311 10.189-10.099 10.189h-8.6416v7.736h8.6416c9.8369 0 17.841-8.0416 17.841-17.925zm-93.661 29.783h7.7439v-53.563h-7.7439zm58.37-15.986-14.139-14.127 13.46-13.448-5.5844-5.5799-19.045 19.028 19.723 19.707 5.5844-5.5799zm-36.594 4.1206h7.7439v-35.756h-7.7439z" fill="#fff" fill-rule="nonzero" stroke-width=".95478"/>
 </g>
</svg>
