<svg id="a" focusable="false" version="1.1" viewBox="0 0 647.95 800" xmlns="http://www.w3.org/2000/svg">
 <g id="b" transform="matrix(19.09 0 0 19.09 .00028793 .00053333)" fill="none" fill-rule="evenodd">
  <g id="c" transform="translate(-1151,-10)">
   <g id="d" transform="translate(1151,10)">
    <g id="e">
     <path id="f" d="m0.010292-2.7938e-5h29.508c1.84e-4 0.022911 0.005897 0.044238 0.017138 0.064075-0.0026 0.13951-0.0075 0.27903-0.0075 0.41854-3.69e-4 9.6578-0.0025 19.315 8e-3 28.973 3.69e-4 0.34785-0.09822 0.41844-0.42191 0.41416-1.4042-0.01825-2.8089 0.0012-4.2131-0.01546-0.29632-0.0035-0.35677 0.08876-0.3552 0.37141 0.01189 2.1293 0.0079 4.2587 0.0057 6.3881-7.37e-4 0.75596-0.01041 1.5118-0.01603 2.2678-0.81084-1.0633-1.6207-2.1274-2.4329-3.1896-0.73528-0.96141-1.4733-1.9208-2.2101-2.881-0.69493-0.92555-1.393-1.8487-2.0817-2.7789-0.11425-0.15432-0.25016-0.17332-0.41869-0.17323-5.7733 0.0033-11.547 0.0038-17.32 0.0048-0.11474-0.13128-0.058262-0.28997-0.058262-0.43461-0.0033171-9.8098-0.0033171-19.62-0.0035935-29.429" fill="#154c85"/>
     <path id="g" d="m19.893 32.809c-0.12586 0.0081-0.25182 0.02338-0.37768 0.02338-4.9065 0.0012-9.813-4.66e-4 -14.72 0.0051-0.2532 2.96e-4 -0.46439-0.05856-0.67429-0.20188-1.2469-0.85173-2.5004-1.6936-3.7505-2.5406-0.1043-0.070683-0.19949-0.15515-0.29863-0.23319 5.7736-8.38e-4 11.547-0.001397 17.32-0.004749 0.16853-9.3e-5 0.30443 0.0189 0.41869 0.17322 0.68875 0.93015 1.3868 1.8532 2.0817 2.7787zm9.643-32.745c0.44274 0.20041 0.8148 0.51396 1.2156 0.78077 0.98747 0.65747 1.9659 1.3286 2.9544 1.9845 0.16051 0.10644 0.23607 0.2127 0.23597 0.41627-0.0052 9.7601-0.0054 19.52 4.61e-4 29.281 1.84e-4 0.25004-0.07989 0.31318-0.31494 0.31169-1.4273-0.0089-2.8546 0.0056-4.2816-0.0122-0.31263-0.0039-0.37704 0.09033-0.37575 0.39178 0.01216 2.7337 0.0073 5.4675 0.0066 8.2013-9.2e-5 0.16278-7e-3 0.32548-0.01069 0.48817h-0.06911c-0.1219-0.20776-0.34424-0.29009-0.52778-0.41534-1.2019-0.82007-2.4109-1.6295-3.6167-2.4436-0.07556-0.05103-0.14448-0.11231-0.21653-0.16874 0.0056-0.75591 0.01529-1.5117 0.01612-2.2676 0.0021-2.1291 0.0061-4.2584-0.0057-6.3875-0.0016-0.28273 0.05879-0.37502 0.35511-0.37148 1.4042 0.01667 2.8089-0.0028 4.2131 0.01555 0.32369 0.0042 0.42228-0.0664 0.42191-0.41423-0.01041-9.657-0.0084-19.314-8e-3 -28.971 0-0.1395 0.0049-0.27901 0.0075-0.41851z" fill="#fdcf05"/>
     <path id="h" d="m8.4934 13.735c0.083756-0.12069 0.043767-0.24967 0.043859-0.36971 0.00258-2.3275 0.00157-4.655 0.00193-6.9825 9.21e-5 -0.48118 0.00765-0.49143 0.47978-0.48854 0.44863 0.0027 0.89911-0.00875 1.3453 0.028217 0.61679 0.051033 1.0007 0.46675 1.0534 1.0899 0.01179 0.13885 0.0141 0.27891 0.0141 0.41842 8.29e-4 2.502 7.37e-4 5.0041 3.68e-4 7.5062-9.2e-5 0.4877-0.0048 0.49208-0.47572 0.49264-0.61025 7.45e-4 -1.2211 0.01518-1.8306-0.0061-0.32305-0.01136-0.39151 0.09573-0.33816 0.40687 0.40441 2.3598 0.79536 4.722 1.1902 7.0835 0.097762 0.58456 0.18483 1.1712 0.29614 1.753 0.04745 0.248-0.0492 0.3171-0.26666 0.31691-1.8308-0.0012-3.6616-3e-3 -5.4924 0.0021-0.2227 6.52e-4 -0.30996-0.08409-0.30821-0.3076 0.0059-0.76801 0.00848-1.5362-0.00157-2.3041-0.00332-0.25815 0.12061-0.31346 0.34157-0.31104 0.63319 0.0071 1.2665 0.0031 1.8998 0.0019 0.43186-7.45e-4 0.45794-0.02933 0.38607-0.45902-0.38533-2.3046-0.77333-4.6088-1.1589-6.9134-0.46798-2.7968-0.92998-5.5946-1.4079-8.3895-0.054732-0.32045 0.026444-0.424 0.33936-0.41385 0.47158 0.015366 0.94408 0.00764 1.4161 0.00326 0.60712-0.00568 0.99614 0.29363 1.2009 0.85946 0.22344 0.61743 0.27099 1.2715 0.38054 1.9115 0.27053 1.581 0.52133 3.1655 0.78633 4.7474 0.017783 0.10588 0.00728 0.23133 0.10449 0.32417" fill="#fefefe"/>
     <path id="i" d="m21.822 16.209c-0.18189 1.0927-0.36313 2.1855-0.54575 3.278-0.28352 1.6968-0.57385 3.3923-0.8465 5.0908-0.04791 0.29875-0.16143 0.41916-0.46909 0.41097-0.6905-0.01835-1.3818-0.0051-2.0729-6e-3 -0.42514-4.66e-4 -0.45849-0.03371-0.38764-0.46135 0.23008-1.3878 0.4666-2.7744 0.69926-4.1617 0.24989-1.4905 0.50816-2.9798 0.73989-4.4731 0.05492-0.35444 0.17765-0.4932 0.54833-0.47448 0.63181 0.03194 1.2666 4.66e-4 1.8998 0.01248 0.28868 0.0054 0.38561-0.07823 0.33235-0.38955-0.48199-2.8192-0.95255-5.6405-1.4222-8.4619-0.12494-0.75078-0.14144-0.65272 0.51627-0.65635 0.42615-0.00242 0.85258 0.00996 1.2783-0.00317 0.49894-0.015459 0.82862 0.22276 1.045 0.65701 0.24334 0.48845 0.27965 1.0284 0.36681 1.5532 0.74809 4.5069 1.489 9.0151 2.2313 13.523 0.16244 0.9863 0.30996 1.9754 0.48991 2.9584 0.05897 0.32231-0.05206 0.38629-0.33466 0.38145-0.69078-0.01192-1.3826-0.02161-2.0727 0.0039-0.3377 0.01239-0.46577-0.11334-0.51857-0.43862-0.35566-2.1922-0.72506-4.3822-1.091-6.5727-0.09905-0.59294-0.2016-1.1852-0.3025-1.7778-0.02783 0.0024-0.05575 0.0049-0.08357 0.0074" fill="#fefefe"/>
     <path id="j" d="m12.31 6.032c-1.84e-4 -0.81458 0.0085-1.6293-0.0052-2.4437-0.0044-0.26308 0.09951-0.35425 0.34212-0.35295 0.73685 0.00391 1.4738 0.00568 2.2106-9.312e-4 0.25505-0.00233 0.34074 0.1097 0.33631 0.36077-0.01152 0.63987 0.0063 1.2803-0.0086 1.92-0.0067 0.29149 0.10237 0.38852 0.38487 0.38294 0.70211-0.013783 1.4046-0.00503 2.107-0.00438 1.0604 9.313e-4 1.6235 0.66762 1.4598 1.7406-0.09113 0.59713-0.19976 1.1916-0.30001 1.7873-0.77177 4.5848-1.5433 9.1696-2.3154 13.754-0.08495 0.504-0.1794 1.0065-0.25707 1.5116-0.03289 0.21372-0.13922 0.29866-0.347 0.29754-0.7714-4e-3 -1.543-0.0075-2.3143 0.0014-0.27329 0.0032-0.29891-0.13168-0.26085-0.35584 0.24915-1.4666 0.49286-2.9341 0.73759-4.4014 0.54087-3.2442 1.0813-6.4886 1.6221-9.7329 0.06874-0.41236 0.14356-0.8238 0.20686-1.2371 0.06607-0.43173 0.05777-0.43807-0.36202-0.43835-0.94417-6.519e-4 -1.8884-0.01071-2.8323 0.00615-0.31807 0.00559-0.4198-0.097876-0.41122-0.42121 0.02092-0.79074 0.0068-1.5825 0.0066-2.3738" fill="#fefefe"/>
    </g>
   </g>
  </g>
 </g>
</svg>
