<?xml version="1.0" encoding="UTF-8"?>
<svg id="svg16" width="302.94pt" height="187.49pt" version="1.1" viewBox="0 0 302.94 187.49" xmlns="http://www.w3.org/2000/svg" xmlns:cc="http://creativecommons.org/ns#" xmlns:dc="http://purl.org/dc/elements/1.1/" xmlns:rdf="http://www.w3.org/1999/02/22-rdf-syntax-ns#">
 <metadata id="metadata22">
  <rdf:RDF>
   <cc:Work rdf:about="">
    <dc:format>image/svg+xml</dc:format>
    <dc:type rdf:resource="http://purl.org/dc/dcmitype/StillImage"/>
    <dc:title/>
   </cc:Work>
  </rdf:RDF>
 </metadata>
 <g id="#fed519ff" transform="translate(-89.178 -116.45)" fill="#51305f">
  <path id="path5" d="m230.64 120.67c2.23-2.26 5.11-4.22 8.41-4.2 6.19-0.45 11.88 5.31 11.41 11.49-0.04 3.28-1.95 6.13-4.27 8.29l-38.47 38.12 15.35 15.58c2.67 2.76 3.83 7.07 2.5 10.73-0.89 3.34-3.77 5.5-6.04 7.9l-24.19 24.76c-2.4 2.61-5.71 4.75-9.4 4.35-5.68 0.18-10.56-5.12-10.57-10.67-0.24-3.36 1.54-6.46 3.9-8.71l20.35-20.61-15.5-15.73c-2.89-2.9-3.58-7.44-2.31-11.23 0.95-2.77 3.23-4.74 5.24-6.74z"/>
  <path id="path7" d="m339.71 119.77c4.04-4.31 11.44-4.41 15.55-0.16 4.34 4.06 4.37 11.58 0 15.63l-39.37 39.03 16.15 16.74c3.29 4.06 2.71 10.4-0.97 14.03l-29.51 29.54c-4.07 4.37-11.85 4.2-15.71-0.37-3.82-3.88-3.92-10.64-0.24-14.64l21.98-22.32-12.98-12.77c-2.39-2.3-4.92-4.92-5.23-8.4-0.61-3.72 0.95-7.49 3.67-10.02z"/>
  <path id="path9" d="m243.29 171.27c3.98-4.11 11.33-4.07 15.24 0.12l20.08 20.08c3.87 4.03 3.6 10.95-0.3 14.86l-31.46 31.67 29.96 30.09c2.47 2.31 4.33 5.47 4.12 8.97 0.17 5.8-5.18 11.06-10.98 10.76-3.41 0.18-6.45-1.73-8.69-4.14l-37.78-38.13c-4.37-4.13-4.11-11.84 0.39-15.78l31-30.9-12.7-12.99c-3.49-4.21-2.96-10.98 1.12-14.61z"/>
  <path id="path11" d="m349.31 172.27c3.75-4.98 11.95-5.47 16.2-0.87l19.6 19.55c4.25 3.97 4.28 11.24 0.19 15.34l-31.46 31.68 34.62 34.64c5.31 4.55 4.79 13.87-1.27 17.52-4.18 2.83-10.29 2.18-13.77-1.49l-42.98-43.1c-4.36-4.11-4.11-11.77 0.34-15.73l31.05-30.94c-3.96-4.26-8.25-8.21-12.24-12.44-3.57-3.82-3.74-10.22-0.28-14.16z"/>
  <path id="path13" d="m152.7 191.62c3.29-3.58 8.89-4.99 13.27-2.58 6.09 2.76 8.08 11.49 3.7 16.57l-25.73 26.32 24.13 24.99c4.09 3.99 4.02 11.09 0 15.09-8.38 8.33-17.18 16.23-25.63 24.49-2.47 2.26-4.68 4.89-7.64 6.53-4.82 2.05-11.04 0.6-13.84-4.03-2.79-4.1-2.25-10.24 1.42-13.64l22.23-21.23-52.33-54.4c-4.76-4.53-3.92-13.25 1.68-16.72 4.09-2.88 10.26-2.44 13.77 1.19l21.06 21.63z"/>
 </g>
</svg>
