<svg id="a" enable-background="new 0 0 223.879 60.913" version="1.1" viewBox="0 0 800 207.32" xml:space="preserve" xmlns="http://www.w3.org/2000/svg">
<path id="b" d="m461.42 0h-29.94v207.32h29.94zm338.58 92.039c0-38.038-30.952-69.002-69.002-69.002h-33.416v29.94h33.416c21.537 0 39.05 17.525 39.05 39.062 0 21.745-17.513 39.44-39.05 39.44h-33.416v29.94h33.416c38.05 0 69.002-31.123 69.002-69.38m-142 55.343-55.294-55.282 55.16-55.172-21.598-21.586-76.758 76.758 76.893 76.88zm-112.19 14.013h-29.94v-138.39h29.94z"/><g id="c" transform="matrix(12.195 0 0 -12.195 -3540.5 6273.6)"><g id="d" transform="translate(295.1 508.49)"><path id="e" d="m0 0c0.83 0 1.451-0.357 1.745-0.946 0.126-0.253 0.209-0.588 0.209-1.24v-3.426h-1.397v3.457c0 0.641-0.294 0.989-0.893 0.989h-1.324v-2.575c0-1.555-0.925-1.944-1.808-1.944-0.294 0-0.535 0.042-0.819 0.116v1.05c0.126-0.01 0.263-0.031 0.431-0.031 0.451 0 0.788 0.158 0.788 1.019v2.365h-1.25v1.166z" fill="#5ebaeb"/></g><g id="f" transform="translate(304.97 506.19)"><path id="g" d="m0 0c0-1.303-0.41-2.207-1.176-2.796-0.536-0.41-1.252-0.662-2.176-0.662-0.852 0-1.598 0.21-2.196 0.674-0.735 0.567-1.156 1.439-1.156 2.784v2.301h1.324v-2.396c0-0.178 0.021-0.357 0.053-0.535 1.018 0.262 1.325 0.599 1.325 1.586v1.345h1.292v-1.345c0-1.828-1.073-2.269-2.271-2.48 0.127-0.168 0.273-0.325 0.453-0.441 0.336-0.232 0.682-0.347 1.155-0.347 0.494 0 0.894 0.127 1.208 0.347 0.558 0.388 0.831 1.029 0.831 1.87v2.396h1.334z" fill="#5ebaeb"/></g><g id="h" transform="translate(308.36 508.49)"><path id="i" d="m0 0c0.841 0 1.439-0.368 1.723-0.946 0.127-0.262 0.221-0.588 0.221-1.25v-3.416h-1.398v3.458c0 0.641-0.294 0.988-0.903 0.988h-1.976v1.166z" fill="#5ebaeb"/></g><g id="j" transform="translate(313.49 502.88)"><path id="k" d="m0 0h-1.419v4.446h-0.641v1.166h2.06z" fill="#5ebaeb"/></g><g id="l" transform="translate(320.03 507.97)"><path id="m" d="m0 0c0.536-0.504 0.756-1.208 0.788-2.018 0.052-1.23-0.336-2.112-0.883-2.584-0.514-0.452-1.197-0.589-1.86-0.589-0.262 0-0.462 0.021-0.609 0.031v1.146c0.126-0.011 0.221-0.022 0.378-0.022 1.019 0 1.586 0.453 1.586 1.787 0 0.568-0.104 0.946-0.314 1.251-0.199 0.294-0.505 0.483-0.903 0.483-0.432 0-0.778-0.21-1.01-0.578-0.316-0.493-0.462-1.271-0.567-2.07-0.032-0.252-0.085-0.694-0.221-1.923h-1.418c0.125 1.356 0.304 2.606 0.493 3.71l-1.04 1.901h1.618l0.483-0.84c0.453 0.652 1.104 0.945 1.84 0.945 0.652 0 1.219-0.231 1.639-0.63" fill="#5ebaeb"/></g><path id="n" d="m321.14 510.34h-30.825v2.014h30.825z" fill="#5ebaeb"/><path id="o" d="m321.14 499.66h-30.825v2.014h30.825z" fill="#5ebaeb"/></g></svg>
