<svg id="a" enable-background="new 0 0 223.879 60.913" version="1.1" viewBox="0 0 800 178.19" xml:space="preserve" xmlns="http://www.w3.org/2000/svg">
<g id="b" transform="matrix(11.761 0 0 -11.761 -4516.4 6039.2)"><path id="c" d="m403.46 509.36h-5.237v-1.497h5.237z" fill="#bd1e24"/><path id="d" d="m398.23 501.94h7.541v1.496h-7.541z" fill="#bd1e24"/><path id="e" d="m394.41 501.94h1.497v7.419h-1.497z" fill="#bd1e24"/><g id="f" transform="translate(406.35 507.82)"><path id="g" d="m0 0 4.645-1e-3v-5.886h1.497v7.419h-6.142z" fill="#bd1e24"/></g><g id="h" transform="translate(384.94 508.11)"><path id="i" d="m0 0h0.694v-3.787c0-1.119-0.521-1.21-1.271-1.128-0.06 7e-3 -0.119 0.013-0.177 0.018l-0.163 0.013v-1.283l0.121-0.024c0.309-0.061 0.553-0.086 0.842-0.086 1.378 0 2.169 0.82 2.169 2.252v4.025h1.793v1.25h-4.008z" fill="#bd1e24"/></g><path id="j" d="m390.42 501.94h1.535v3.771h-1.535z" fill="#bd1e24"/><g id="k" transform="translate(415.15 508.1)"><path id="l" d="m0 0h0.693v-3.787c0-1.119-0.521-1.21-1.271-1.128-0.059 7e-3 -0.119 0.013-0.176 0.018l-0.164 0.013v-1.283l0.122-0.024c0.309-0.061 0.553-0.086 0.842-0.086 1.378 0 2.168 0.82 2.168 2.252v4.025h1.794v1.256h-4.008z" fill="#bd1e24"/></g><path id="m" d="m420.64 501.94h1.535v3.771h-1.535z" fill="#bd1e24"/></g><path id="n" d="m508.99 0h-25.733v178.19h25.733zm291.01 79.116c0-32.707-26.615-59.311-59.311-59.311h-28.72v25.745h28.72c18.512 0 33.566 15.054 33.566 33.566 0 18.688-15.054 33.883-33.566 33.883h-28.72v25.745h28.72c32.696 0 59.311-26.745 59.311-59.628m-122.06 47.561-47.514-47.514 47.397-47.42-18.559-18.559-65.967 65.979 66.085 66.085zm-96.417 12.043h-25.733v-118.95h25.733z"/></svg>
