<?xml version="1.0" encoding="UTF-8"?>
<svg id="Layer_1" width="800" height="149.54" enable-background="new 0 0 223.879 60.913" version="1.1" viewBox="0 0 800 149.54" xml:space="preserve" xmlns="http://www.w3.org/2000/svg" xmlns:cc="http://creativecommons.org/ns#" xmlns:dc="http://purl.org/dc/elements/1.1/" xmlns:rdf="http://www.w3.org/1999/02/22-rdf-syntax-ns#"><metadata id="metadata36"><rdf:RDF><cc:Work rdf:about=""><dc:format>image/svg+xml</dc:format><dc:type rdf:resource="http://purl.org/dc/dcmitype/StillImage"/><dc:title/></cc:Work></rdf:RDF></metadata>
<g id="g2097" transform="matrix(10.149 0 0 -10.149 -1962.1 5212.1)"><g id="g2069"><g id="g330" transform="translate(196.09 508.18)"><path id="path332" d="m0 0c0.751 0 1.28-0.325 1.531-0.835 0.111-0.232 0.195-0.519 0.195-1.104v-3.016h-1.244v3.053c0 0.566-0.269 0.872-0.788 0.872h-2.449v1.03zm-1.521-4.955h-1.234v2.561h1.234z"/></g><g id="g334" transform="translate(206.36 504.96)"><path id="path336" d="m0 0h-1.233v2.19h-0.567v1.03h1.8z"/></g><g id="g338" transform="translate(209.88 508.18)"><path id="path340" d="m0 0c0.733 0 1.317-0.204 1.726-0.557 0.501-0.436 0.732-1.104 0.732-1.892 0-1.633-0.992-2.635-2.42-2.635-1.448 0-2.441 1.02-2.441 2.588v2.496zm-1.168-1.03v-1.466c0-0.881 0.389-1.531 1.196-1.531s1.197 0.65 1.197 1.54c0 0.455-0.102 0.863-0.344 1.123-0.195 0.213-0.491 0.334-0.89 0.334z"/></g><g id="g342" transform="translate(214.91 503.22)"><path id="path344" d="m0 0h-1.252v3.925h-0.566v1.03h1.818z"/></g><g id="g346" transform="translate(220.84 507.62)"><path id="path348" d="m0 0c0.474-0.446 0.668-1.067 0.696-1.781 0.046-1.086-0.297-1.865-0.779-2.283-0.455-0.398-1.058-0.519-1.643-0.519-0.232 0-0.408 0.018-0.538 0.028v1.011c0.112-9e-3 0.195-0.019 0.335-0.019 0.899 0 1.4 0.399 1.4 1.577 0 0.502-0.092 0.836-0.278 1.105-0.176 0.259-0.445 0.426-0.797 0.426-0.381 0-0.688-0.185-0.891-0.51-0.279-0.436-0.408-1.122-0.501-1.827-0.028-0.223-0.074-0.613-0.195-1.699h-1.252c0.111 1.198 0.269 2.302 0.436 3.276l-0.919 1.678h1.428l0.428-0.742c0.399 0.576 0.973 0.836 1.623 0.836 0.575 0 1.076-0.204 1.447-0.557"/></g><g id="g350" transform="translate(225.37 508.18)"><path id="path352" d="m0 0c0.751 0 1.28-0.325 1.531-0.835 0.111-0.232 0.194-0.519 0.194-1.104v-3.016h-1.243v3.053c0 0.566-0.269 0.872-0.788 0.872h-2.45v1.03zm-1.521-4.955h-1.234v2.56h1.234z"/></g><g id="g354" transform="translate(231.63 508.18)"><path id="path356" d="m0 0h2.625v-0.965l-1.484-3.99h-1.308l1.475 3.925h-2.533v2.7h1.225z"/></g><g id="g358" transform="translate(236.88 503.22)"><path id="path360" d="m0 0h-1.252v3.925h-0.566v1.03h1.818z"/></g><g id="g362" transform="translate(242.68 507.17)"><path id="path364" d="m0 0-1.392-3.953h-1.289l1.372 3.926h-3.403v1.038h4.712z"/></g><path id="path366" d="m238.82 501.21h-0.287v6.224h0.287z"/><path id="path368" d="m237.67 501.21h0.998v1.027h-0.998z"/><path id="path370" d="m198.5 501.21h0.998v1.027h-0.998z"/><g id="g372" transform="translate(203.52 507.17)"><path id="path374" d="m0 0-1.392-3.953h-1.289l1.372 3.926h-3.404v1.038h4.713z"/></g><path id="path376" d="m199.66 501.21h-0.288v6.224h0.288z"/></g><path id="path378" d="m248.1 513.58h-2.128v-14.735h2.128zm24.064-6.542c0 2.704-2.201 4.905-4.905 4.905h-2.375v-2.129h2.375c1.531 0 2.776-1.245 2.776-2.776 0-1.545-1.245-2.802-2.776-2.802h-2.375v-2.128h2.375c2.704 0 4.905 2.212 4.905 4.93m-10.093-3.933-3.929 3.93 3.92 3.92-1.535 1.535-5.455-5.455 5.464-5.465zm-7.973-0.996h-2.128v9.836h2.128z"/></g></svg>
