<svg id="b" enable-background="new 0 0 223.879 60.913" version="1.1" viewBox="0 0 800 251.32" xml:space="preserve" xmlns="http://www.w3.org/2000/svg"><defs id="c">
<clipPath id="a"><path id="d" d="M 0,595.28 H 841.89 V 0 H 0 Z"/></clipPath></defs>
<g id="e" transform="matrix(13.437 0 0 -13.437 -291.81 6923.8)"><path id="f" d="m50.845 504.21h-1.963v-1.907h1.963z"/><g id="g"><g id="h" clip-path="url(#a)"><g id="i" transform="translate(52.788 501.75)"><path id="j" d="m0 0c0-1.691-1.357-3.067-3.048-3.067-1.692 0-3.048 1.376-3.048 3.067v2.504h-1.964v-2.504c0-2.782 2.281-5.046 5.063-5.046 2.783 0 5.064 2.264 5.064 5.046v2.504h-2.067z"/></g><g id="k" transform="translate(73.164 504.87)"><path id="l" d="m0 0c0 1.691 1.357 3.067 3.048 3.067 1.692 0 3.049-1.376 3.049-3.067v-0.624h-6.097zm8.088 0c0 2.783-2.257 5.047-5.04 5.047-2.782 0-5.011-2.264-5.011-5.047v-0.625h-2.186l-0.066 0.058-3.988 4.002 3.918 3.925-1.399 1.403-5.318-5.344 4.055-4.044-7.209 1e-3v11.018h-1.86v-18.703h1.86v5.742h22.244z"/></g><g id="m" transform="translate(22.838 504.74)"><path id="n" d="m0 0c0.073-0.149 0.185-0.251 0.336-0.306s0.358-0.083 0.62-0.083h0.815v1.972c-0.251 0.024-0.516 0.037-0.792 0.037-0.278 0-0.493-0.028-0.646-0.083-0.154-0.056-0.266-0.152-0.336-0.291-0.071-0.138-0.106-0.338-0.106-0.6 0-0.282 0.036-0.498 0.109-0.646m3.569-0.389v-0.922h-2.666c-0.499 0-0.892 0.053-1.178 0.159-0.287 0.106-0.5 0.298-0.639 0.578-0.138 0.28-0.208 0.686-0.208 1.22 0 0.508 0.066 0.897 0.197 1.166 0.131 0.27 0.342 0.459 0.634 0.567s0.703 0.163 1.231 0.163c0.283 0 0.62-0.011 1.013-0.031 0.392-0.02 0.669-0.042 0.83-0.068v-2.832z"/></g><path id="o" d="m28.235 502.82h0.778v-0.944h-0.778zm-1.148 0h0.778v-0.944h-0.778zm1.458 4.381v-3.777h-2.241v0.922h1.229v2.855z"/><path id="p" d="m29.678 508.72h1.012v-5.287h-1.012z"/><g id="q" transform="translate(35.894 504.35)"><path id="r" d="m0 0v-0.921h-4.222v0.921h2.425v0.272c0 0.654-0.124 1.122-0.37 1.401-0.248 0.28-0.542 0.419-0.884 0.419h-0.763l-0.076 0.793c0.156 0.035 0.334 0.069 0.533 0.098 0.198 0.031 0.381 0.046 0.547 0.046 0.403 0 0.757-0.1 1.061-0.299 0.305-0.198 0.542-0.497 0.71-0.895 0.169-0.398 0.253-0.886 0.253-1.465v-0.37z"/></g><path id="s" d="m37.05 502.82h0.929v-0.982h-0.929zm2.115 1.526v-0.922h-3.271v0.922h1.126v2.855h1.012v-2.855z"/><g id="t" transform="translate(41.106 508.72)"><path id="u" d="m0 0v-5.287h-1.941v0.921h0.929v4.366z"/></g><path id="v" d="m42.314 508.72h1.012v-5.287h-1.012z"/></g></g></g></svg>
