<?xml version="1.0" encoding="UTF-8"?>
<!-- Generator: Adobe Illustrator 16.0.0, SVG Export Plug-In . SVG Version: 6.00 Build 0)  -->
<svg id="Layer_1" width="800" height="321.51" enable-background="new -39.713 0 139.592 56.051" version="1.1" viewBox="-39.713 0 800 321.51" xml:space="preserve" xmlns="http://www.w3.org/2000/svg" xmlns:cc="http://creativecommons.org/ns#" xmlns:dc="http://purl.org/dc/elements/1.1/" xmlns:rdf="http://www.w3.org/1999/02/22-rdf-syntax-ns#"><metadata id="metadata15"><rdf:RDF><cc:Work rdf:about=""><dc:format>image/svg+xml</dc:format><dc:type rdf:resource="http://purl.org/dc/dcmitype/StillImage"/><dc:title/></cc:Work></rdf:RDF></metadata>
<g id="g4" transform="matrix(5.731 0 0 5.731 187.88 .28655)" fill="#fff">
	<path id="path2" d="m99.879 24.857zc0-10.296-8.385-18.671-18.688-18.671h-9.05v8.104h9.05c5.832 0 10.578 4.74 10.578 10.567 0 5.883-4.746 10.671-10.578 10.671h-9.05v8.103h9.05c10.303 0 18.688-8.422 18.688-18.774zm-99.758 31.194zh8.11v-56.101h-8.11zm61.134-16.743zl-14.809-14.797 14.097-14.085-5.848-5.844-19.947 19.929 20.658 20.639zm-38.327 4.315h8.11v-37.45h-8.11z" fill="#fff"/>
</g>
<g id="g8" transform="matrix(5.731 0 0 5.731 187.88 .28655)">
	<path id="path6" d="m-27.752 10.443c4.492 0 7.523 1.895 9.039 5.142 0.596 1.299 1.028 2.868 1.028 6.17v11.582h4.709v6.008h-26.737v-6.008h14.83v-11.799c0-3.301-1.515-5.087-4.654-5.087h-9.905v-6.008z" fill="#29aae1"/>
</g>
</svg>
