<?xml version="1.0" encoding="UTF-8"?>
<svg id="Layer_1" width="800" height="271.34" enable-background="new 0 0 223.879 60.913" version="1.1" viewBox="0 0 800 271.34" xml:space="preserve" xmlns="http://www.w3.org/2000/svg" xmlns:cc="http://creativecommons.org/ns#" xmlns:dc="http://purl.org/dc/elements/1.1/" xmlns:rdf="http://www.w3.org/1999/02/22-rdf-syntax-ns#"><metadata id="metadata36"><rdf:RDF><cc:Work rdf:about=""><dc:format>image/svg+xml</dc:format><dc:type rdf:resource="http://purl.org/dc/dcmitype/StillImage"/><dc:title/></cc:Work></rdf:RDF></metadata><defs id="defs34">
<linearGradient id="linearGradient100" x2="1" gradientTransform="matrix(17.588 0 0 17.588 575.94 506.22)" gradientUnits="userSpaceOnUse"><stop id="stop94" stop-color="#bc51af" offset="0"/><stop id="stop96" stop-color="#6c45a6" offset=".69668"/><stop id="stop98" stop-color="#6c45a6" offset="1"/></linearGradient></defs>
<g id="g82" transform="matrix(15.975 0 0 -15.975 -9200.9 8217.9)"><g id="g84"><g id="g90"><g id="g92"><path id="path102" d="m575.94 509.58c0-1.253 0.501-2.459 1.374-3.358-0.873-0.9-1.374-2.106-1.374-3.358 0-2.665 2.167-4.834 4.833-4.834 1.588 0 3.06 0.788 3.958 2.075 0.018-0.024 0.036-0.046 0.054-0.071 0.043-0.059 0.087-0.119 0.132-0.177 0.095-0.119 0.196-0.233 0.302-0.344 0.035-0.036 0.07-0.073 0.107-0.108 0.119-0.115 0.243-0.224 0.373-0.327 0.044-0.035 0.09-0.067 0.136-0.101 0.118-0.088 0.241-0.171 0.367-0.247 0.037-0.022 0.071-0.045 0.108-0.065 0.336-0.192 0.695-0.342 1.073-0.448 0.042-0.012 0.083-0.023 0.125-0.032 0.148-0.039 0.299-0.069 0.453-0.093 0.049-7e-3 0.098-0.016 0.146-0.022 0.193-0.023 0.389-0.04 0.588-0.04 2.665 0 4.833 2.169 4.833 4.834 0 1.251-0.5 2.458-1.373 3.358 0.873 0.9 1.373 2.105 1.373 3.358 0 2.664-2.168 4.832-4.833 4.832-1.592 0-3.061-0.785-3.96-2.073-0.875 1.251-2.323 2.074-3.962 2.074-2.666-1e-3 -4.833-2.169-4.833-4.833m9.107 2.25c0.781 1.262 2.153 2.044 3.648 2.044 2.369 0 4.296-1.927 4.296-4.294 0-1.195-0.509-2.347-1.393-3.16-0.291-0.268-0.616-0.493-0.964-0.67-0.611-0.31-1.263-0.466-1.939-0.467-1.335 0-2.421-1.085-2.421-2.419s1.086-2.42 2.421-2.42c1.334 0 2.419 1.086 2.419 2.42 0 0.162-0.015 0.32-0.046 0.475-0.092 0.465-0.319 0.893-0.661 1.236-0.105 0.105-0.22 0.196-0.34 0.279-0.017 0.011-0.033 0.024-0.05 0.036-0.014 9e-3 -0.029 0.02-0.042 0.029 0.127 0.035 0.252 0.076 0.377 0.123 4e-3 1e-3 9e-3 3e-3 0.014 5e-3 0.118 0.043 0.232 0.092 0.347 0.144 0.027-0.022 0.054-0.045 0.079-0.069 0.039-0.035 0.077-0.071 0.113-0.109 0.044-0.044 0.086-0.091 0.127-0.138 0.034-0.039 0.068-0.078 0.099-0.119 0.039-0.049 0.074-0.1 0.109-0.151 0.029-0.042 0.058-0.084 0.086-0.128 0.032-0.052 0.062-0.108 0.092-0.162 0.023-0.045 0.048-0.088 0.069-0.133 0.027-0.057 0.051-0.118 0.074-0.177 0.019-0.044 0.038-0.089 0.054-0.134 0.021-0.064 0.039-0.13 0.057-0.194 0.013-0.044 0.025-0.088 0.035-0.132 0.017-0.074 0.028-0.149 0.039-0.224 6e-3 -0.038 0.014-0.075 0.018-0.113 0.013-0.113 0.02-0.228 0.02-0.344 0-1.703-1.385-3.089-3.089-3.089-1.703 0-3.089 1.386-3.089 3.089 0 0.165 0.017 0.329 0.043 0.491 6e-3 0.031 0.01 0.062 0.017 0.093 0.063 0.327 0.179 0.642 0.344 0.933 0.011 0.019 0.021 0.037 0.032 0.056 0.084 0.142 0.18 0.277 0.287 0.405 0.139 0.166 0.294 0.319 0.471 0.456 0.548 0.429 1.203 0.654 1.895 0.654 0.813 0 1.584 0.266 2.227 0.768 0.89 0.694 1.4 1.736 1.4 2.86 0 0.967-0.378 1.879-1.062 2.564-0.6 0.598-1.372 0.962-2.204 1.044-0.119 0.011-0.239 0.018-0.36 0.018h-1e-3c-1.48 0-2.753-0.892-3.316-2.166-0.089 0.276-0.199 0.538-0.332 0.79m-8.569-2.25c0 2.367 1.926 4.294 4.295 4.294 2.368 0 4.296-1.927 4.296-4.294 0-0.134 8e-3 -0.265 0.021-0.395 6e-3 -0.043 0.013-0.085 0.02-0.128 0.013-0.087 0.025-0.172 0.044-0.257 0.011-0.049 0.026-0.097 0.038-0.147 0.02-0.076 0.042-0.152 0.067-0.227 0.017-0.049 0.035-0.098 0.054-0.148 0.027-0.071 0.057-0.142 0.089-0.211 0.022-0.049 0.045-0.096 0.069-0.144 0.035-0.068 0.074-0.135 0.114-0.202 0.027-0.044 0.053-0.089 0.081-0.131 0.045-0.069 0.095-0.134 0.144-0.199 0.029-0.039 0.056-0.077 0.088-0.115 0.06-0.074 0.127-0.144 0.193-0.214 0.025-0.024 0.046-0.05 0.071-0.075 3e-3 -2e-3 6e-3 -4e-3 8e-3 -8e-3 -0.191-0.118-0.375-0.249-0.549-0.393-0.779 0.801-1.221 1.878-1.221 2.994 0 1.999-1.627 3.626-3.627 3.626s-3.627-1.628-3.627-3.626c0-0.134 9e-3 -0.265 0.023-0.395 5e-3 -0.043 0.013-0.085 0.019-0.128 0.012-0.087 0.026-0.172 0.045-0.257 0.01-0.049 0.025-0.097 0.036-0.147 0.021-0.076 0.043-0.152 0.067-0.227 0.017-0.049 0.036-0.098 0.054-0.148 0.028-0.071 0.058-0.142 0.09-0.211 0.023-0.049 0.045-0.096 0.069-0.144 0.036-0.068 0.074-0.135 0.114-0.202 0.028-0.044 0.054-0.089 0.082-0.131 0.044-0.069 0.093-0.134 0.143-0.199 0.03-0.039 0.056-0.077 0.087-0.115 0.062-0.074 0.128-0.144 0.195-0.214 0.024-0.024 0.045-0.05 0.07-0.075 2e-3 -2e-3 5e-3 -4e-3 8e-3 -8e-3 -0.192-0.118-0.376-0.249-0.548-0.392-0.781 0.799-1.222 1.877-1.222 2.993m2.197-2.26c-0.038 0.037-0.076 0.072-0.111 0.108-0.045 0.045-0.087 0.093-0.128 0.14-0.033 0.04-0.067 0.077-0.099 0.118-0.038 0.049-0.075 0.101-0.11 0.153-0.028 0.04-0.058 0.082-0.084 0.125-0.033 0.053-0.064 0.11-0.093 0.165-0.024 0.044-0.048 0.086-0.069 0.131-0.027 0.059-0.052 0.119-0.075 0.177-0.017 0.046-0.037 0.09-0.052 0.135-0.023 0.064-0.04 0.129-0.057 0.195-0.013 0.043-0.026 0.086-0.036 0.131-0.017 0.072-0.027 0.148-0.039 0.222-5e-3 0.039-0.014 0.075-0.018 0.114-0.013 0.114-0.02 0.228-0.02 0.346 0 1.702 1.385 3.087 3.089 3.088 1.702 0 3.089-1.386 3.089-3.088 0-0.957-0.436-1.845-1.193-2.437-0.548-0.427-1.205-0.652-1.896-0.652-0.813 0-1.582-0.266-2.226-0.769-0.891-0.694-1.401-1.736-1.401-2.858 0-2.001 1.627-3.627 3.627-3.627 1.479 0 2.753 0.891 3.316 2.164 0.088-0.274 0.2-0.538 0.333-0.789-0.781-1.262-2.158-2.044-3.649-2.044-2.369 0-4.295 1.928-4.295 4.296 0 1.194 0.508 2.346 1.394 3.16 0.288 0.266 0.612 0.49 0.962 0.668l2e-3 1e-3c0.609 0.31 1.261 0.466 1.937 0.466 1.334 0 2.42 1.086 2.42 2.421 0 1.333-1.086 2.42-2.42 2.42s-2.419-1.087-2.419-2.42c0-0.099 6e-3 -0.196 0.018-0.29 4e-3 -0.03 9e-3 -0.058 0.013-0.086 0.01-0.068 0.024-0.135 0.041-0.2 6e-3 -0.029 0.013-0.059 0.022-0.088 0.02-0.073 0.044-0.143 0.072-0.213 6e-3 -0.017 0.012-0.035 0.018-0.052 0.036-0.085 0.076-0.167 0.122-0.246 0.011-0.022 0.025-0.042 0.037-0.064 0.035-0.058 0.073-0.114 0.111-0.17 0.019-0.024 0.036-0.049 0.055-0.073 0.041-0.053 0.084-0.103 0.129-0.152 0.017-0.02 0.034-0.039 0.052-0.057 0.062-0.065 0.129-0.126 0.199-0.183 0.013-0.011 0.028-0.02 0.041-0.031 0.058-0.045 0.118-0.089 0.181-0.129 0.01-8e-3 0.02-0.015 0.03-0.022-0.128-0.035-0.254-0.077-0.38-0.123-4e-3 -1e-3 -7e-3 -3e-3 -0.01-5e-3 -0.117-0.044-0.235-0.092-0.35-0.145-0.027 0.023-0.054 0.045-0.08 0.069m7.925-1e-3c-0.04 0.036-0.079 0.073-0.116 0.111-0.044 0.043-0.084 0.089-0.125 0.135-0.034 0.042-0.069 0.08-0.101 0.123-0.037 0.047-0.072 0.098-0.107 0.148-0.029 0.043-0.06 0.085-0.087 0.129-0.032 0.053-0.061 0.107-0.091 0.162-0.023 0.044-0.048 0.088-0.07 0.133-0.027 0.059-0.05 0.118-0.074 0.176-0.018 0.046-0.038 0.09-0.054 0.137-0.022 0.063-0.037 0.128-0.056 0.192-0.012 0.045-0.026 0.088-0.036 0.133-0.017 0.072-0.028 0.148-0.039 0.222-6e-3 0.039-0.014 0.075-0.019 0.114-0.012 0.114-0.019 0.228-0.019 0.346 0 1.702 1.386 3.087 3.089 3.087h1e-3c0.824 0 1.6-0.321 2.182-0.904 0.584-0.583 0.906-1.359 0.906-2.183 0-0.957-0.435-1.845-1.194-2.436-0.548-0.428-1.204-0.653-1.895-0.654-0.813 0-1.582-0.265-2.227-0.768-0.198-0.156-0.375-0.328-0.534-0.516l-2e-3 3e-3c-9e-3 -0.011-0.015-0.021-0.024-0.031-0.034-0.042-0.065-0.084-0.098-0.126-0.042-0.054-0.081-0.108-0.118-0.164-0.035-0.052-0.068-0.103-0.1-0.154-0.03-0.05-0.058-0.102-0.086-0.153-0.031-0.057-0.063-0.113-0.09-0.171-0.014-0.029-0.025-0.06-0.037-0.091-0.089 0.272-0.202 0.534-0.335 0.787 0.208 0.336 0.455 0.648 0.749 0.917v1e-3c0.29 0.266 0.614 0.491 0.962 0.668l4e-3 2e-3c0.608 0.309 1.259 0.465 1.936 0.465 1.334 0 2.419 1.086 2.419 2.421 0 0.646-0.25 1.254-0.707 1.71-0.457 0.457-1.065 0.71-1.711 0.71h-1e-3c-1.335 0-2.421-1.087-2.421-2.42 0-0.099 9e-3 -0.196 0.019-0.29 4e-3 -0.03 9e-3 -0.058 0.013-0.086 0.012-0.068 0.025-0.135 0.041-0.2 7e-3 -0.029 0.013-0.059 0.022-0.088 0.021-0.073 0.044-0.143 0.071-0.213 9e-3 -0.017 0.013-0.035 0.021-0.052 0.035-0.085 0.075-0.167 0.12-0.246 0.012-0.022 0.026-0.043 0.039-0.065 0.034-0.058 0.071-0.113 0.109-0.168 0.019-0.025 0.037-0.05 0.056-0.074 0.041-0.053 0.084-0.103 0.128-0.15 0.018-0.02 0.034-0.041 0.054-0.059 0.062-0.065 0.128-0.126 0.197-0.182 0.014-0.012 0.029-0.022 0.044-0.033 0.058-0.046 0.116-0.088 0.178-0.128 0.011-7e-3 0.02-0.015 0.031-0.022-0.251-0.07-0.499-0.161-0.74-0.273-0.025 0.022-0.053 0.043-0.077 0.068m0.212 2.261c0 0.259 0.054 0.505 0.149 0.731 0.286 0.675 0.955 1.15 1.735 1.15 0.129 0 0.256-0.013 0.376-0.038 0.021-4e-3 0.041-0.014 0.062-0.019 0.1-0.024 0.199-0.051 0.293-0.091 9e-3 -4e-3 0.017-0.01 0.027-0.015 0.425-0.189 0.769-0.531 0.959-0.958 5e-3 -0.01 0.012-0.02 0.016-0.031 0.039-0.09 0.066-0.188 0.09-0.287 6e-3 -0.022 0.016-0.044 0.02-0.066 0.025-0.123 0.039-0.248 0.039-0.376 0-1.039-0.845-1.883-1.883-1.883-1.039 0-1.883 0.844-1.883 1.883m-7.921 0c0 1.037 0.845 1.881 1.882 1.881s1.882-0.844 1.882-1.881c0-1.039-0.845-1.883-1.882-1.883s-1.882 0.844-1.882 1.883m-1.207-6.716c0 0.955 0.435 1.843 1.194 2.434 0.549 0.429 1.203 0.654 1.895 0.654 0.812 0 1.582 0.266 2.226 0.767 0.485 0.379 0.852 0.862 1.092 1.405 0.081-0.258 0.189-0.507 0.313-0.747-0.143-0.308-0.575-0.796-0.729-0.957-0.291-0.268-0.615-0.493-0.962-0.67-0.61-0.31-1.262-0.466-1.94-0.466-1.334 0-2.419-1.086-2.419-2.42 0-0.165 0.016-0.327 0.049-0.485 5e-3 -0.027 0.018-0.053 0.024-0.081 0.03-0.128 0.065-0.254 0.116-0.375 5e-3 -0.011 0.013-0.021 0.019-0.033 0.119-0.272 0.284-0.522 0.5-0.738 0.214-0.213 0.462-0.377 0.73-0.496 0.015-7e-3 0.027-0.016 0.041-0.023 0.119-0.05 0.244-0.084 0.37-0.115 0.028-7e-3 0.055-0.019 0.085-0.026 0.158-0.031 0.32-0.048 0.484-0.048h1e-3c1.334 0 2.42 1.086 2.42 2.42 0 0.097-8e-3 0.193-0.019 0.29-3e-3 0.028-9e-3 0.056-0.013 0.085-0.011 0.067-0.024 0.134-0.04 0.2-8e-3 0.03-0.014 0.058-0.022 0.088-0.022 0.073-0.046 0.143-0.073 0.212-6e-3 0.018-0.011 0.035-0.019 0.053-0.035 0.084-0.076 0.165-0.12 0.245-0.011 0.023-0.025 0.043-0.038 0.064-0.035 0.059-0.072 0.115-0.111 0.169-0.018 0.027-0.036 0.05-0.055 0.074-0.041 0.052-0.084 0.103-0.13 0.152-0.017 0.019-0.033 0.038-0.051 0.057-0.063 0.065-0.13 0.127-0.2 0.184-0.011 9e-3 -0.025 0.019-0.038 0.028-0.059 0.047-0.12 0.091-0.184 0.133-0.01 6e-3 -0.019 0.014-0.03 0.02 0.252 0.07 0.5 0.162 0.741 0.273 0.027-0.022 0.055-0.046 0.079-0.069 0.039-0.036 0.077-0.071 0.113-0.108 0.045-0.045 0.087-0.094 0.128-0.142 0.034-0.037 0.066-0.075 0.097-0.115 0.04-0.051 0.076-0.103 0.112-0.156 0.029-0.04 0.056-0.08 0.082-0.121 0.034-0.056 0.065-0.112 0.096-0.171 0.021-0.041 0.045-0.083 0.066-0.126 0.028-0.059 0.052-0.121 0.077-0.184 0.018-0.043 0.036-0.084 0.051-0.127 0.022-0.067 0.04-0.134 0.057-0.201 0.013-0.042 0.027-0.084 0.036-0.125 0.017-0.075 0.028-0.152 0.038-0.227 7e-3 -0.038 0.015-0.073 0.019-0.111 0.013-0.113 0.02-0.228 0.02-0.344 0-1.703-1.387-3.089-3.089-3.089-1.704 0-3.089 1.386-3.089 3.089m6.543 3.364c0.14 0.157 0.334 0.388 0.491 0.621 0.154-0.225 0.329-0.435 0.522-0.633-0.184-0.189-0.35-0.39-0.501-0.605-0.152 0.219-0.324 0.423-0.512 0.617m8.095-3.364c0 0.132-9e-3 0.263-0.023 0.393-5e-3 0.043-0.013 0.085-0.019 0.128-0.013 0.086-0.026 0.173-0.044 0.257-0.011 0.05-0.025 0.097-0.037 0.147-0.021 0.077-0.043 0.152-0.067 0.228-0.017 0.049-0.036 0.098-0.055 0.147-0.028 0.072-0.057 0.143-0.089 0.213-0.022 0.048-0.045 0.094-0.068 0.142-0.037 0.069-0.076 0.137-0.116 0.204-0.026 0.043-0.052 0.087-0.08 0.13-0.046 0.069-0.095 0.137-0.146 0.201-0.028 0.038-0.054 0.075-0.084 0.111-0.066 0.078-0.134 0.153-0.206 0.227-0.019 0.02-0.037 0.041-0.059 0.061-2e-3 4e-3 -5e-3 7e-3 -9e-3 0.01 0.191 0.118 0.376 0.249 0.549 0.393 0.779-0.801 1.222-1.878 1.222-2.992 0-2.368-1.927-4.296-4.296-4.296-0.176 0-0.35 0.014-0.522 0.036-0.044 4e-3 -0.086 0.013-0.13 0.019-0.136 0.022-0.271 0.048-0.404 0.082-0.036 0.01-0.073 0.019-0.109 0.029-0.333 0.094-0.655 0.227-0.956 0.398-0.031 0.018-0.06 0.038-0.09 0.057-0.116 0.068-0.227 0.143-0.335 0.222-0.038 0.029-0.077 0.057-0.115 0.087-0.118 0.094-0.233 0.194-0.344 0.301-0.025 0.025-0.05 0.051-0.075 0.077-0.098 0.101-0.191 0.208-0.28 0.319-0.038 0.049-0.076 0.1-0.113 0.151-0.067 0.09-0.13 0.186-0.189 0.284-0.251 0.409-0.438 0.862-0.541 1.348-0.019 0.086-0.03 0.176-0.042 0.264-8e-3 0.057-0.021 0.114-0.027 0.173-0.016 0.149-0.023 0.297-0.023 0.449 0 0.132-9e-3 0.263-0.023 0.393-6e-3 0.043-0.013 0.086-0.02 0.13-0.013 0.085-0.025 0.171-0.043 0.255-0.011 0.05-0.025 0.098-0.039 0.148-0.019 0.076-0.04 0.151-0.065 0.225-0.017 0.051-0.037 0.101-0.055 0.151-0.028 0.07-0.057 0.14-0.089 0.208-0.021 0.05-0.046 0.099-0.07 0.147-0.035 0.067-0.074 0.133-0.112 0.198-0.028 0.045-0.054 0.091-0.083 0.135-0.045 0.068-0.093 0.133-0.142 0.197-0.03 0.038-0.057 0.078-0.089 0.115-0.062 0.076-0.128 0.148-0.198 0.219-0.022 0.023-0.043 0.046-0.065 0.069-3e-3 3e-3 -6e-3 6e-3 -8e-3 9e-3 0.038 0.023 0.074 0.056 0.111 0.081 0.09 0.058 0.177 0.122 0.264 0.187 0.057 0.043 0.118 0.08 0.173 0.125 0.779-0.8 1.222-1.878 1.222-2.992 0-2.001 1.626-3.627 3.626-3.627s3.627 1.626 3.627 3.627m-5.51 0c0 0.259 0.054 0.506 0.149 0.731 0.286 0.675 0.955 1.151 1.734 1.151 0.13 0 0.255-0.014 0.377-0.038 0.019-5e-3 0.038-0.014 0.057-0.018 0.102-0.025 0.203-0.052 0.298-0.093 6e-3 -2e-3 0.012-6e-3 0.018-9e-3 0.43-0.187 0.775-0.532 0.966-0.961 6e-3 -0.011 0.013-0.021 0.018-0.033 0.039-0.09 0.066-0.188 0.09-0.286 6e-3 -0.023 0.016-0.045 0.02-0.068 0.025-0.122 0.039-0.247 0.039-0.376 0-1.039-0.845-1.883-1.883-1.883-1.039 0-1.883 0.844-1.883 1.883m-7.581-1.075c-6e-3 8e-3 -0.013 0.015-0.018 0.024-0.059 0.085-0.107 0.179-0.15 0.274-7e-3 0.016-0.018 0.031-0.025 0.047-0.038 0.09-0.064 0.186-0.088 0.282-6e-3 0.026-0.017 0.047-0.022 0.071-0.024 0.122-0.037 0.248-0.037 0.377 0 1.037 0.845 1.882 1.882 1.882s1.882-0.845 1.882-1.882c0-0.26-0.052-0.508-0.148-0.732-0.286-0.677-0.956-1.15-1.735-1.15-0.128 0-0.254 0.013-0.376 0.038-0.024 4e-3 -0.047 0.015-0.071 0.021-0.096 0.024-0.194 0.05-0.283 0.088-0.013 6e-3 -0.025 0.015-0.037 0.02-0.099 0.044-0.196 0.094-0.283 0.154h-2e-3c-0.192 0.131-0.356 0.296-0.489 0.486" fill="url(#linearGradient100)"/></g></g></g></g><path id="path112" d="m374.48 10.767h-37.638v260.57h37.638zm425.52 115.68c0-47.814-38.9-86.714-86.714-86.714h-41.999v37.638h41.999c27.062 0 49.076 22.014 49.076 49.076 0 27.334-22.014 49.572-49.076 49.572h-41.999v37.638h41.999c47.814 0 86.714-39.124 86.714-87.21m-178.46 69.573-69.493-69.493 69.317-69.333-27.126-27.142-96.475 96.475 96.635 96.619zm-141 17.605h-37.638v-173.94h37.638z" fill="#fff"/></svg>
