<?xml version="1.0" encoding="UTF-8"?>
<svg id="Layer_1" width="800" height="190.33" enable-background="new 0 0 223.879 60.913" version="1.1" viewBox="0 0 800 190.33" xml:space="preserve" xmlns="http://www.w3.org/2000/svg" xmlns:cc="http://creativecommons.org/ns#" xmlns:dc="http://purl.org/dc/elements/1.1/" xmlns:rdf="http://www.w3.org/1999/02/22-rdf-syntax-ns#"><metadata id="metadata36"><rdf:RDF><cc:Work rdf:about=""><dc:format>image/svg+xml</dc:format><dc:type rdf:resource="http://purl.org/dc/dcmitype/StillImage"/><dc:title/></cc:Work></rdf:RDF></metadata>
<g id="g1937" transform="matrix(13.89 0 0 -13.89 -1577.2 7122.3)"><g id="g380" transform="translate(116.93 508.57)"><path id="path382" d="m0 0c-0.462 0.011-0.958 0-1.41 0v-2.203h1.41c1.079 0 1.145 2.192 0 2.203m-3.381-5.947v7.709h3.392c3.689-0.012 3.689-5.738 0-5.738h-1.421v-1.971z" fill="#475eb4"/></g><g id="g384" transform="translate(122.21 507.49)"><path id="path386" d="m0 0h-1.938c0.297 2.06 2.026 2.929 3.623 2.929 1.96 0 3.942-1.321 3.953-3.942-0.011-2.621-1.993-3.942-3.953-3.931-1.641 0-3.37 0.859-3.656 3.039h1.938c0.209-0.825 0.881-1.244 1.718-1.244 0.87 0.011 1.53 0.54 1.806 1.288h-2.5v1.663h2.533c-0.253 0.815-0.947 1.332-1.839 1.332-0.826 0-1.41-0.352-1.685-1.134" fill="#475eb4"/></g><g id="g388" transform="translate(128.89 502.62)"><path id="path390" d="m0 0v7.708h2.004v-2.917h0.143c1.972 0 1.873 1.475 1.873 2.917h2.025c0-1.574 0.045-3.028-1.486-4.008l2.092-3.391v-0.309h-2.191l-1.696 2.984c-0.264-0.044-0.507-0.044-0.76-0.044v-2.94z" fill="#475eb4"/></g><g id="g392" transform="translate(140.02 507.31)"><path id="path394" d="m0 0-0.859-2.026h1.74zm1.531-3.722h-3.04l-0.451-0.969h-1.927v0.286l3.469 7.521h0.847l3.48-7.521v-0.286h-1.927z" fill="#475eb4"/></g></g><path id="path396" d="m489.2 0h-27.488v190.33h27.488zm310.8 84.506c0-34.933-28.405-63.352-63.338-63.352h-30.683v27.502h30.683c19.765 0 35.85 16.071 35.85 35.85 0 19.96-16.084 36.197-35.85 36.197h-30.683v27.488h30.683c34.933 0 63.338-28.558 63.338-63.685m-130.34 50.809-50.767-50.768 50.629-50.629-19.821-19.835-70.463 70.463 70.588 70.588zm-102.99 12.862h-27.488v-127.05h27.488z" fill="#fff"/></svg>
