<svg width="341.16" height="205.98" enable-background="new 0 0 354.5 216" version="1.1" viewBox="0 0 341.16 205.98" xml:space="preserve" xmlns="http://www.w3.org/2000/svg" xmlns:xlink="http://www.w3.org/1999/xlink"><defs>
	<clipPath id="a">
		<use width="100%" height="100%" overflow="visible" xlink:href="#SVGID_3_"/>
	</clipPath>
</defs>
<path d="m122.22 32.727c-35.543-24.49-84.115-15.473-108.51 20.113-24.392 35.581-15.374 84.279 20.165 108.77 0.182 0.124 0.357 0.244 0.534 0.365l63.858 44.007-5.912-31.91c19.612-3.647 37.832-14.792 50.014-32.563 24.394-35.589 15.379-84.298-20.15-108.78" fill="#e30613"/>
<g fill="#fff"><path transform="translate(-409.4 -6.5)" d="m530.89 51.041c0.272-1.819-0.147-3.103-1.265-3.853-0.883-0.624-2.322-0.937-4.321-0.937-2.14 0-4.217 0.313-6.231 0.937-0.271 0.078-0.424 0.207-0.455 0.387-0.017 0.093 0 0.226 0.047 0.398l0.328 1.323c0.055 0.227 0.259 0.289 0.611 0.188l0.776-0.211-1.599 7.601c-0.16 0.734-0.383 1.261-0.666 1.581-0.34 0.383-0.887 0.625-1.639 0.726-0.359 0.047-0.533 0.262-0.523 0.644l0.056 1.218c8e-3 0.305 0.183 0.441 0.524 0.41 3.123-0.218 4.976-1.76 5.56-4.626l1.687-8.175c0.491-0.086 0.897-0.129 1.217-0.129 1.906 0 2.73 0.859 2.475 2.577l-1.341 9.135c-0.068 0.383 0.09 0.574 0.472 0.574h2.354c0.32 0 0.506-0.183 0.555-0.55zm-14.343-0.398c0.361-2.85-0.784-4.275-3.439-4.275-1.796 0-3.289 0.52-4.479 1.558-0.419-0.859-1.133-1.433-2.145-1.722-0.422-0.132-0.744-0.054-0.967 0.235l-0.855 1.136c-0.106 0.156-0.166 0.273-0.18 0.351-0.018 0.102 0.103 0.238 0.361 0.41 0.529 0.367 0.711 1.015 0.547 1.944-0.027 0.156-0.064 0.324-0.111 0.504l-2.56 9.334c-0.128 0.461-0.032 0.691 0.288 0.691h2.295c0.367 0 0.598-0.176 0.691-0.527l2.904-10.295c0.795-0.702 1.688-1.054 2.68-1.054 1.179 0 1.693 0.602 1.545 1.804l-0.613 5.399c-0.188 1.593-0.975 2.389-2.365 2.389-0.305 0-0.678-0.054-1.119-0.164-0.277-0.062-0.479 0.043-0.605 0.317l-0.637 1.417c-0.099 0.203-0.129 0.336-0.094 0.398 0.02 0.07 0.108 0.137 0.27 0.199 0.467 0.187 1.219 0.281 2.258 0.281 3.357 0 5.268-1.796 5.729-5.387zm-13.107-3.549c0.057-0.32-0.082-0.48-0.419-0.48h-2.26c-0.274 0-0.452 0.039-0.536 0.117s-0.148 0.239-0.189 0.481l-1.393 7.893c-0.047 0.266 0.051 0.399 0.293 0.399 0.063 0 0.135-0.016 0.219-0.047l2.49-1.171c0.383-0.18 0.607-0.453 0.672-0.82zm-4.954 0.024c0.06-0.336-0.103-0.504-0.484-0.504h-10.025c-0.383 0-0.605 0.176-0.667 0.527l-0.254 1.441c-0.06 0.336 0.063 0.503 0.368 0.503h5.469l-1.974 11.197c-0.062 0.351 0.043 0.527 0.317 0.527h2.564c0.304 0 0.484-0.16 0.541-0.48l1.982-11.244h1.289c0.351 0 0.553-0.152 0.607-0.456zm-20.869 7.424c1.77-0.78 2.91-2.026 3.422-3.736l1.063-3.572c0.12-0.414 0.013-0.621-0.323-0.621h-2.308c-0.319 0-0.522 0.149-0.604 0.445l-1.291 4.591c-0.142 0.539-0.383 0.961-0.727 1.265l-2.96-5.926c-0.128-0.25-0.36-0.375-0.694-0.375h-2.59c-0.211 0-0.335 0.11-0.373 0.328-0.027 0.149-0.012 0.285 0.045 0.41l2.217 4.556c-1.582 1.007-2.596 2.221-3.043 3.642l-1.459 4.756c-0.105 0.335-0.015 0.503 0.274 0.503h2.284c0.172 0 0.309-0.031 0.409-0.094 0.101-0.062 0.176-0.191 0.226-0.386l1.545-5.376c0.194-0.656 0.432-1.136 0.711-1.44l3.269 6.91c0.11 0.257 0.333 0.386 0.669 0.386h2.693c0.188 0 0.299-0.097 0.334-0.293 0.023-0.14 2e-3 -0.281-0.067-0.421zm-9.59-3.501c0.273-1.819-0.148-3.103-1.266-3.853-0.881-0.624-2.32-0.937-4.32-0.937-2.14 0-4.217 0.313-6.231 0.937-0.272 0.078-0.423 0.207-0.455 0.387-0.017 0.093-1e-3 0.226 0.047 0.398l0.329 1.323c0.054 0.227 0.257 0.289 0.611 0.188l0.774-0.211-1.598 7.601c-0.161 0.734-0.382 1.261-0.665 1.581-0.342 0.383-0.887 0.625-1.639 0.726-0.36 0.047-0.535 0.262-0.523 0.644l0.054 1.218c9e-3 0.305 0.185 0.441 0.525 0.41 3.123-0.218 4.976-1.76 5.559-4.626l1.688-8.175c0.49-0.086 0.896-0.129 1.217-0.129 1.904 0 2.73 0.859 2.475 2.577l-1.343 9.135c-0.067 0.383 0.091 0.574 0.474 0.574h2.354c0.32 0 0.505-0.183 0.555-0.55zm-13.587-3.947c0.057-0.32-0.084-0.48-0.419-0.48h-2.261c-0.273 0-0.452 0.039-0.536 0.117s-0.147 0.239-0.19 0.481l-1.392 7.893c-0.046 0.266 0.052 0.399 0.293 0.399 0.063 0 0.136-0.016 0.22-0.047l2.49-1.171c0.383-0.18 0.606-0.453 0.672-0.82zm-9.899 10.67c-1.133 0-1.801 0.574-2.002 1.722-0.201 1.14 0.271 1.71 1.42 1.71 1.132 0 1.8-0.578 2.004-1.734 0.199-1.132-0.273-1.698-1.422-1.698m3.42-12.157h-2.553c-0.219 0-0.412 0.084-0.578 0.252s-0.26 0.361-0.283 0.58l-0.833 9.24c-0.037 0.383 0.121 0.574 0.472 0.574h1.266c0.352 0 0.578-0.199 0.68-0.597l2.402-9.241c0.141-0.54-0.05-0.808-0.573-0.808" clip-path="url(#a)"/><path d="m69.239 60.607-23 87.437h39.041c2.514-10.243 5.605-21.646 8.699-32.663 2.125-7.537 4.25-15.268 6.184-22.613l-0.58 0.194c2.513-1.547 5.992-2.706 9.084-2.706 5.219 0 9.471 2.899 7.537 11.016l-11.402 46.772h39.428c2.705-11.403 6.377-27.251 9.471-39.042 1.545-5.991 2.318-11.403 2.318-16.041 0-22.42-14.302-32.277-30.344-32.277-4.639 1e-3 -56.436-0.077-56.436-0.077m-46.383 0.658-14.302 53.729h41.167l14.109-53.729z"/></g><g fill="#72838f"><path d="m201.76 199.57v-14.011h-4.008l-2.407 10.276-2.407-10.276h-4.088v14.011h2.584v-9.559l2.467 9.559h2.769l2.486-9.601v9.601zm-14.898-5.909v-2.467h-5.855v-3.189h6.697v-2.445h-9.481v14.011h2.784v-5.909h5.855zm-14.172-1.75c1.022-0.548 1.382-1.814 1.382-3.04 0-2.132-1.361-3.776-3.988-3.776-2.326 0-4.049 1.645-4.049 3.86 0 1.184 0.4 2.492 1.502 3.082-1.383 0.696-2.084 1.941-2.084 3.567 0 2.47 1.563 4.452 4.631 4.452 3.088 0 4.591-1.919 4.591-4.579-1e-3 -1.563-0.783-2.997-1.985-3.566zm-2.627-0.801c-1.083 0-1.625-0.782-1.625-1.88 0-1.141 0.542-1.901 1.625-1.901 1.084 0 1.626 0.761 1.626 1.901 0 1.098-0.542 1.88-1.626 1.88zm0 6.691c-1.344 0-1.886-0.866-1.886-2.323 0-1.33 0.563-2.196 1.886-2.196 1.324 0 1.926 0.908 1.926 2.196 0 1.457-0.582 2.323-1.926 2.323m-5.956-1.076h-2.785v2.847h2.785zm-3.93 2.845v-2.382h-5.734c0.061-0.718 0.823-1.731 1.846-2.512 2.848-2.132 3.849-3.357 3.849-5.489 0-2.764-1.823-4.093-4.511-4.093-2.727 0-4.33 1.813-4.33 4.832h2.505c0-1.879 0.763-2.491 1.946-2.491 1.023 0 1.846 0.422 1.846 1.836 0 1.182-0.563 1.9-2.469 3.336-3.406 2.575-3.987 4.37-4.008 6.963zm-18.865-3.014c0.28 2.257 1.723 3.501 3.869 3.501 3.309 0 4.951-2.32 4.951-7.935 0-4.624-1.542-7.027-4.672-7.027-2.627 0-4.389 2.13-4.389 5.001 0 2.914 1.662 4.642 3.768 4.642 1.324 0 2.107-0.548 2.729-1.307-0.16 2.997-0.843 4.433-2.267 4.433-0.863-1e-3 -1.345-0.442-1.405-1.308zm4.231-3.968c-1.145 0-1.906-1.015-1.906-2.618 0-1.5 0.662-2.661 1.865-2.661 1.285 0 2.027 1.098 2.027 2.703 0 1.541-0.824 2.576-1.986 2.576m-11.408 6.982 3.85-14.011h-2.186l-3.81 14.011zm-10.645-6.289c2.166 0 2.969 0.549 2.969 2.196 0 1.478-0.822 2.323-1.905 2.323-1.304 0-1.986-0.719-1.986-2.345h-2.504c0 2.851 1.603 4.601 4.369 4.601 2.788 0 4.69-1.729 4.69-4.537 0-1.774-0.721-2.913-1.982-3.461 1.041-0.632 1.563-1.878 1.563-3.146 0-2.259-1.824-3.818-4.129-3.818-2.527 0-4.291 1.813-4.291 4.495h2.424c0-1.457 0.763-2.303 1.767-2.303 1.204 0 1.726 0.761 1.726 2.154 0 1.035-0.461 1.922-2.709 1.922v1.919zm-13.412 3.275c0.28 2.257 1.723 3.501 3.869 3.501 3.309 0 4.95-2.32 4.95-7.935 0-4.624-1.542-7.027-4.67-7.027-2.627 0-4.39 2.13-4.39 5.001 0 2.914 1.662 4.642 3.768 4.642 1.324 0 2.105-0.548 2.729-1.307-0.16 2.997-0.842 4.433-2.268 4.433-0.863-1e-3 -1.344-0.442-1.404-1.308zm4.229-3.968c-1.144 0-1.906-1.015-1.906-2.618 0-1.5 0.662-2.661 1.866-2.661 1.284 0 2.025 1.098 2.025 2.703 1e-3 1.541-0.821 2.576-1.985 2.576"/><path d="m306.99 184.75h-2.743v14.936h2.743zm-4.54 0h-2.743v2.688h2.743zm0 4.001h-2.743v10.935h2.743zm-4.455 7.937h-2.934v2.998h2.934zm-9.271 3.287c3.232 0 5.278-2.287 5.278-5.757 0-3.49-2.025-5.756-5.278-5.756-3.295 0-5.341 2.287-5.341 5.756 0 3.403 1.984 5.757 5.341 5.757m0-2.421c-1.669 0-2.514-1.111-2.514-3.336 0-2.224 0.845-3.313 2.514-3.313s2.515 1.089 2.515 3.313-0.846 3.336-2.515 3.336m-9.209-1.823c-0.104 1.178-0.949 1.822-2.026 1.822s-2.027-1.155-2.027-3.535c0-2.381 0.95-3.158 2.112-3.158 1.034 1e-3 1.815 0.668 1.963 1.801h2.767c-0.169-2.577-2.006-4.199-4.709-4.199-2.914 0-4.854 1.711-4.854 5.623s1.94 5.89 4.77 5.89c2.513 0 4.478-1.711 4.773-4.243h-2.769zm-7.708 0.957h-2.933v2.998h2.933zm-4.602 2.998v-7.58c0-2.044-1.456-3.644-3.546-3.644-1.311 0-2.24 0.533-2.811 1.732-0.802-1.267-1.477-1.732-2.892-1.732-1.373 0-2.346 0.444-3.043 1.888v-1.599h-2.574v10.935h2.743v-6.646c0-1.423 0.571-2.134 1.67-2.134 1.204 0 1.648 0.444 1.648 2.2v6.58h2.742v-6.535c0-1.334 0.74-2.334 1.754-2.334 0.973 0 1.628 0.933 1.628 2.245v6.624zm-17.824 0v-8.893h1.773v-2.042h-1.773c0-1.269 0.316-1.67 1.71-1.67v-2.331c-2.955 0-4.411 1.332-4.411 4.001h-1.542v2.042h1.542v8.893zm-11.087-6.624c2.282 0 3.128 0.577 3.128 2.313 0 1.558-0.867 2.447-2.008 2.447-1.373 0-2.092-0.757-2.092-2.469h-2.638c0 3.002 1.688 4.844 4.603 4.844 2.936 0 4.94-1.82 4.94-4.778 0-1.868-0.76-3.067-2.089-3.645 1.098-0.666 1.646-1.979 1.646-3.313 0-2.378-1.92-4.021-4.35-4.021-2.66 0-4.518 1.909-4.518 4.732h2.553c0-1.535 0.804-2.424 1.86-2.424 1.268 0 1.816 0.8 1.816 2.27 0 1.089-0.485 2.023-2.853 2.023v2.021zm-14.126 3.447c0.296 2.377 1.815 3.688 4.075 3.688 3.484 0 5.215-2.443 5.215-8.355 0-4.871-1.625-7.401-4.92-7.401-2.767 0-4.623 2.242-4.623 5.267 0 3.068 1.751 4.889 3.968 4.889 1.396 0 2.219-0.577 2.874-1.377-0.169 3.156-0.887 4.669-2.388 4.669-0.908-1e-3 -1.416-0.467-1.479-1.378h-2.722zm4.456-4.179c-1.204 0-2.008-1.068-2.008-2.758 0-1.579 0.697-2.802 1.966-2.802 1.352 0 2.134 1.155 2.134 2.847-1e-3 1.623-0.867 2.713-2.092 2.713"/></g>
<g fill="#004774"><path d="m269.46 170.85 17.395-66.486h-34.981l-16.429 66.486zm-19.327-75.764s17.781-5.605 31.697-5.798c12.368-0.193 23.578 4.832 21.26 18.361-1.16 7.344-5.412 13.529-14.882 13.335l-6.571 25.126c7.537 0.773 8.697 0.773 10.436 0.773 33.051 0 49.092-24.159 49.092-46.192 0-7.344-2.319-15.655-6.378-22.033-9.663-14.689-27.444-19.134-43.294-19.134-19.713 0-33.821 6.571-33.821 6.571zm2.323-34.209h-40.781l-22.42 86.779h40.973zm-73.248 86.779 22.42-86.199c4.831-18.361 15.654-32.663 30.149-33.243 9.277-0.387 18.555 2.319 18.555 2.319l6.57-22.419s-10.436-8.118-31.503-8.118c-3.092 0-6.185 0.194-9.47 0.58-27.252 3.286-46.191 26.285-52.57 50.637-12.176 47.159-24.932 96.443-24.932 96.443z"/><polygon transform="translate(-409.4 -6.5)" points="619.46 191.85 619.46 205.78 627.76 198.81"/></g>
</svg>
