<svg enable-background="new 0 0 420.588 411.765" space="preserve" version="1.1" viewBox="0 0 800 783.22" xmlns="http://www.w3.org/2000/svg">
 <link href="" rel="stylesheet" type="text/css"/>
 <style type="text/css"/>
 <g transform="scale(1.9021)" fill="#ee223c">
  <polygon points="144.12 0 0 0 0 44.118 101.47 44.118 101.47 411.76 144.12 411.76"/>
  <polygon points="66.176 411.76 66.176 79.412 0 79.412 0 122.06 25 122.06 25 408.82 26.471 411.76"/>
  <path d="m367.65 120.59 52.942-120.59h-251.47v44.118h185.29l-39.706 91.177 1.471 1.471c22.06 13.235 39.706 33.823 50 57.353 7.354 16.177 10.295 32.353 10.295 50s-2.941 33.823-10.295 50c-5.882 13.235-14.705 26.471-25 36.765-23.529 23.529-54.411 36.765-86.765 36.765h-86.764v44.118h85.294c38.235 0 76.471-13.235 105.88-38.235 64.706-54.412 79.411-148.53 33.823-220.59-7.353-11.767-16.176-22.061-25.001-32.355z"/>
  <path d="m273.53 333.82c22.059-4.412 41.176-17.647 57.353-36.765 20.589-29.412 22.06-69.118 4.412-100-5.883-11.765-16.177-23.529-27.941-30.883-10.294-5.882-20.588-10.294-32.353-13.235l33.823-77.941h-136.76v42.647h70.588l-33.823 76.471h47.059c11.765 0 22.06 4.412 30.883 11.765 10.294 8.823 16.176 22.059 16.176 36.765 0 26.471-22.059 48.529-48.529 48.529h-85.294v44.118h85.294c5.881-1e-3 13.233-1e-3 19.116-1.471z"/>
 </g>
</svg>
