<svg width="600pt" height="92.167pt" version="1.1" viewBox="0 0 600 92.167" xmlns="http://www.w3.org/2000/svg">
 <path d="m464.53 45.892v46.275h-28.783v-47.833c0-9.4333-7.675-17.108-17.108-17.108-9.4417 0-17.117 7.675-17.117 17.108v47.833h-28.775v-46.275c0-25.308 20.592-45.892 45.892-45.892s45.892 20.583 45.892 45.892zm-285.5-43.425h-28.625v27.217h27.075c9.7167 0 17.592 7.875 17.592 17.6s-7.875 17.6-17.592 17.6h-27.075v27.225h27.942c24.6 0 45.125-19.533 45.492-44.125 0.39167-25.033-19.858-45.517-44.808-45.517zm114.18 56.533c0 3.25-2.6333 5.8833-5.8833 5.8833h-13.175v27.225h21.858c14.342 0 25.983-11.633 25.983-25.975v-63.642h-28.783zm-59.767 33.167h28.775v-89.675h-28.775zm100.48-36.558h28.775v-53.117h-28.775zm-224.22 0h28.775v-53.117h-28.775zm403.98-4.5h9.1083v-41.692h-9.1083zm43.142-37.492-6.5583-6.5-23.325 23.117 23.358 23.158 6.5667-6.5083-16.808-16.658zm22.217-4.1833h-10.158v9.025h10.158c6.5417 0 11.867 5.275 11.867 11.767 0 6.55-5.325 11.875-11.867 11.875h-10.158v9.025h10.158c11.558-8e-3 20.967-9.3833 20.967-20.908 0-11.458-9.4083-20.783-20.967-20.783zm-91 55.433h9.1v-62.375h-9.1zm-433.64-62.4h-51.208v27.217h10.417v29.317c0 3.25-2.6333 5.8833-5.8833 5.8833h-7.7167v27.225h11.95c7.9167 0 15.642-2.8917 21.333-8.4 5.8667-5.6833 9.1-13.333 9.1-21.475v-32.542h12.008c9.2667 0 16.775 7.5083 16.775 16.775v45.7h28.775v-44.15c0-25.158-20.392-45.55-45.55-45.55z" fill="#1a234c" stroke-width="8.3333"/>
</svg>
