<svg enable-background="new 0 0 113.04 58.561" version="1.1" viewBox="0 0 800 414.35" xml:space="preserve" xmlns="http://www.w3.org/2000/svg">
<g transform="matrix(7.0757 0 0 7.0757 .16274 0)" enable-background="new    ">
	<g clip-rule="evenodd" fill-rule="evenodd">
		<rect x="12.48" y="34.561" width="6.24" height="6"/>
		<path d="m113.02 32.824c-2e-3 -0.112 0-0.224-5e-3 -0.336-0.389-8.172-6.706-15.216-15.051-15.668-8.829-0.479-16.258 6.794-16.128 16.111 7e-3 0.469 0.04 0.931 0.084 1.389h-7.127l-12.446-12.365 12.159-12.37-4.078-4.025-16.368 16.284 1.05 0.995 11.302 11.481h-22.492v-34.32h-5.52v58.56h5.52v-18h69.12v-7.736zm-25.492 1.496c-0.031-0.366-0.048-0.737-0.045-1.112 0.052-6.261 4.902-10.926 10.49-10.442 5.237 0.454 9.196 5.165 9.469 10.573 0.017 0.329 0.019 0.656 8e-3 0.981z"/>
		<path d="m24.96 34.32v9.12h-8e-3c-0.959 5.183-5.251 8.826-10.117 8.438-4.471-0.357-7.992-3.93-9.021-8.399v-9.159h-5.814v9.12h-0.023c6e-3 0.047 0.017 0.093 0.023 0.141v0.1h0.016c1.016 7.535 7.036 13.775 14.861 14.181 8.155 0.423 15.1-5.805 15.98-14.125l0.102-0.885v-8.532z"/>
	</g>
</g>
</svg>
