<?xml version="1.0" encoding="UTF-8"?>
<!-- Generator: Adobe Illustrator 16.0.0, SVG Export Plug-In . SVG Version: 6.00 Build 0)  -->
<svg id="svg11" width="483.16" height="443" enable-background="new 0 0 539 484" version="1.1" viewBox="0 0 483.16 443" xml:space="preserve" xmlns="http://www.w3.org/2000/svg" xmlns:cc="http://creativecommons.org/ns#" xmlns:dc="http://purl.org/dc/elements/1.1/" xmlns:rdf="http://www.w3.org/1999/02/22-rdf-syntax-ns#"><metadata id="metadata17"><rdf:RDF><cc:Work rdf:about=""><dc:format>image/svg+xml</dc:format><dc:type rdf:resource="http://purl.org/dc/dcmitype/StillImage"/><dc:title/></cc:Work></rdf:RDF></metadata>
<linearGradient id="SVGID_1_" x1="27.786" x2="510.95" y1="243.02" y2="243.02" gradientTransform="translate(-27.786 -21.522)" gradientUnits="userSpaceOnUse">
	<stop id="stop2" stop-color="#A30362" offset="0"/>
	<stop id="stop4" stop-color="#EC2C4E" offset=".5"/>
	<stop id="stop6" stop-color="#EC792B" offset="1"/>
</linearGradient>
<path id="path9" d="m238.19 235.11c-0.022-16.957-8e-3 -33.916-4e-3 -50.874 1e-3 -3.807 1.509-5.34 5.679-5.099 7.291 0.423 14.625 0.2 21.938 0.076 2.604-0.045 3.409 0.844 3.365 3.455-0.149 8.81-0.058 17.623-0.063 26.435-6e-3 8.646-0.121 17.294 0.058 25.936 0.063 3.102-0.609 4.512-4.068 4.41-7.476-0.221-14.968-0.25-22.44 0.02-3.45 0.121-4.461-1.47-4.465-4.359zm-180.84 132.82c-0.022 16.015-12.782 28.631-28.891 28.565-15.709-0.062-28.493-12.896-28.46-28.572 0.032-15.461 13.271-28.62 28.724-28.553 15.661 0.069 28.649 13.026 28.627 28.56zm-35.297-15.208h-5.439c-0.934 2.801-3.328 4.505-6.616 4.667v4.628h5.155v20.091h6.9zm25.243 17.98h-2.436v-4.384l-6.291 0.041v4.343h-5.845l10.025-17.98h-7.266l-9.984 17.899v5.561h13.069v5.967l6.291-0.041v-5.926h2.436v-5.48zm131.01-122.76h-0.016c0-9.988 0.126-19.979-0.027-29.964-0.271-17.552-13.057-33.656-30.289-37.477-12.61-2.796-25.518-0.819-38.287-1.197-2.768-0.082-2.535 2.028-2.536 3.875-3e-3 7.158 0.112 14.319-0.06 21.473-0.085 3.557 0.98 5.083 4.829 4.955 7.649-0.253 15.313-0.059 22.97-0.059 9.595-1e-3 13.203 3.586 13.213 13.247 0.018 18.813 0.098 37.623-0.076 56.433-0.033 3.606 0.732 5.048 4.632 4.878 6.978-0.304 13.986-0.262 20.968-0.013 3.627 0.13 4.891-0.808 4.781-4.692-0.298-10.48-0.102-20.973-0.102-31.459zm223.9-68.473h-15v33h1e-3c0 23.4-0.3 33.7-1.2 35.5-1.397 3.2-5.6 5.5-9.7 5.5-3.397 0-2.897 1.5-5.6-17-0.9-5.8-2-13-2.5-16s-1.8-12.5-3-21-2.3-16.5-2.6-17.8c-0.4-2.2-0.7-2.2-15.603-2.2h-15.1l0.7 6.7c0.397 3.8 1.3 10.8 2.1 15.8 0.8 4.9 2.1 13.9 3 20 0.9 6 2.3 15.1 3.1 20.1 0.7 5 1.4 9.603 1.4 10.2 0 0.7-2.9 1.2-7.2 1.4l-7.3 0.3v30h29c27.5-0.1 29.3-0.2 34.5-2.3 7.6-3 14.8-8.8 19.2-15.2 6.5-9.6 6.8-12.3 6.8-51.8v-35.2zm80.949 42.131c-0.025 123.05-99.716 221.34-221.27 221.4-120.54 0.129-220.86-96.666-221.55-220.11-0.702-126.06 101.23-221.28 218.28-222.87 121.31-1.646 224.57 95.977 224.54 221.59zm-35.615-1.262c-0.653-102.89-83.941-184.68-185.98-184.55-102.81 0.135-185.44 82.854-185.62 185.4-0.189 105.54 84.963 186.33 185.48 186.58 101.33 0.064 186.8-81.454 186.13-187.44zm-131.21-36.957c0.029-3.417-1.188-4.273-4.35-4.19-6.824 0.18-13.676 0.352-20.481-0.05-4.676-0.275-6.238 0.86-6.135 5.894 0.353 17.151 0.206 34.313 0.106 51.472-0.062 10.603-6.564 16.979-17.218 17.058-9.662 0.07-19.326 0.119-28.985-0.033-9.741-0.153-16.24-6.655-16.378-16.321-0.127-8.827-0.027-17.658-0.033-26.487-6e-3 -9.162-0.112-18.326 0.056-27.486 0.055-2.967-0.715-4.147-3.865-4.069-7.658 0.191-15.328 0.214-22.986 0.016-3.448-0.09-4.089 1.312-4.061 4.437 0.144 16.157 0.067 32.317 0.066 48.477-1e-3 4.153 0.197 8.26 0.806 12.408 2.969 20.268 19.259 36.502 39.73 38.994 13.105 1.596 26.324 1.203 39.415 0.447 25.156-1.449 43.33-20.977 44.117-45.597 0.586-18.307 0.038-36.647 0.196-54.97z" fill="url(#SVGID_1_)"/>
</svg>
