<?xml version="1.0" encoding="UTF-8"?>
<!-- Created with Inkscape (http://www.inkscape.org/) -->
<svg id="svg8" width="722.39" height="214.95" version="1.1" viewBox="0 0 191.13 56.873" xmlns="http://www.w3.org/2000/svg" xmlns:cc="http://creativecommons.org/ns#" xmlns:dc="http://purl.org/dc/elements/1.1/" xmlns:rdf="http://www.w3.org/1999/02/22-rdf-syntax-ns#">
 <metadata id="metadata5">
  <rdf:RDF>
   <cc:Work rdf:about="">
    <dc:format>image/svg+xml</dc:format>
    <dc:type rdf:resource="http://purl.org/dc/dcmitype/StillImage"/>
    <dc:title/>
   </cc:Work>
  </rdf:RDF>
 </metadata>
 <path id="path880" d="m8.27 0c-1.7035 0-3.3341 0.28605-3.3341 2.5394v1.3784h6.4985c1.2371 0 1.1981 0.52436 0.31048 0.85368l-7.0097 2.9553v22.171c0 2.6415-1.3017 3.5842-4.1392 2.8239l-0.59396 4.7456c1.6408 0.60292 3.2212 0.64567 4.7414 0.64567 7.1667 0 10.75-4.5941 10.75-11.664v-20.723c-4e-5 -1.1237 0.58672-1.8088 1.7105-1.8088h3.0599c3.4265 0 5.8548 2.9232 5.8548 5.1294v28.162h10.551l0.0011-25.735c0-4.1504-1.11-7.1419-3.33-8.9758-2.027-1.665-5.1877-2.498-9.4828-2.498zm97.798 0v3.8205h1.9806c3.4474 0 5.7183 3.7078 5.7183 6.8141v19.217c0 1.6595-0.27005 2.8425-3.0237 2.8425h-5.652l-0.0693 4.254c6.5322-0.45431 12.827-0.9507 18.807-1.4166 0.11714-0.36923 0.17481-0.79923 0.17481-1.2904v-22.767c0-3.8126-1.0435-6.7084-3.36-8.6871-2.1958-1.858-5.2599-2.7867-9.193-2.7867zm43.033 0c-1.7035 0-3.3341 0.28605-3.3341 2.5394v1.3784h6.423c1.237 0 1.4071 0.47486 0.38597 0.85368l-7.0097 2.9553v26.37c3.7532-0.164 7.3421-0.25097 10.754-0.22872l6e-3 -2e-3v-28.139c0-1.1238 0.58678-1.8088 1.7105-1.8088h3.0599c3.4265 0 5.8549 2.5758 5.8549 6.188v24.279c3.8194 0.38311 7.346 0.99547 10.552 1.9092l1e-3 -24.82c0-4.1504-1.11-7.143-3.33-8.9768-2.0269-1.665-5.1887-2.4969-9.4838-2.4969zm-107.53 0.0011v17.927l10.352-3.6921v-14.235zm15.954 0v3.8411h6.1435c8.2823 0 10.802 8.248 10.888 14.691 0 8.735-5.7484 13.906-10.888 13.906h-6.1435v4.7704h12.363c10.231 0 15.346-6.2248 15.346-18.676 0-12.355-5.1148-18.532-15.346-18.532zm32.342 0v37.208h10.28v-37.208zm39.39 0v17.927l10.352-3.6921v-14.235zm24.632 38.654c-14.739 0.11534-32.563 2.0395-52.794 3.3548-28.466 1.8506-67.804 5.5727-100.11-0.29178l-0.1624 0.64881c25.195 5.8016 46.528 5.4774 69.797 5.1242 29.361-0.44562 66.871-3.11 81.635-1.0576 9.7215 1.3515 14.976 4.6271 19.039 10.44 3.8993-5.5149 8.6644-9.8772 19.84-8.1158-7.7965-8.0402-20.539-10.233-37.243-10.103z" fill="#4ea1ca"/>
 <path id="path913" d="m177.5 17.178c-3.4893 0.03444-6.9738 0.06908-10.553 0.12215v17.085c3.8194 0.38311 7.346 0.99547 10.552 1.9092zm-21.178 0.30942c-3.5592 0.07369-7.1509 0.1618-10.76 0.26078v16.349c3.7532-0.164 7.3421-0.25091 10.754-0.22866h6e-3zm-32.322 1.0234c-3.4132 0.14958-6.8264 0.31416-10.237 0.49562v10.846c0 1.6595-0.26999 2.8426-3.0236 2.8426h-5.652l-0.0693 4.254c6.5322-0.45431 12.827-0.95076 18.807-1.4167 0.11714-0.36923 0.17489-0.79918 0.17489-1.2904zm-23.856 1.3173c-3.4429 0.23254-6.874 0.48055-10.28 0.75334v16.628h10.28zm-14.986 1.1507c-3.6747 0.31767-7.3289 0.65258-10.933 1.0234-1.2821 6.6162-6.1437 10.437-10.56 10.437h-6.1435v4.7704h12.363c9.5369 0 14.626-5.4119 15.273-16.231zm-48.492 6.3246c-3.6213 0.68526-7.1416 1.4162-10.551 2.1958v7.7102h10.551zm-22.336 5.2267c-5.1556 1.4914-9.9555 3.1254-14.33 4.9174v0.02063c1.6408 0.60292 3.2212 0.64573 4.7414 0.64573 4.816 0 8.0107-2.0773 9.5904-5.5837zm139.56 6.1249c-14.739 0.11534-32.563 2.0396-52.794 3.3548-28.466 1.8506-67.804 5.5726-100.11-0.29182l-0.1626 0.64881c25.195 5.8016 46.528 5.4775 69.797 5.1243 29.361-0.44562 66.872-3.11 81.635-1.0575 9.7215 1.3515 14.976 4.6271 19.039 10.44 3.8993-5.5149 8.6644-9.8772 19.84-8.1159-7.7966-8.0401-20.539-10.233-37.243-10.103z" fill="#35749a"/>
</svg>
