<?xml version="1.0" encoding="UTF-8"?>
<svg id="svg26" width="600pt" height="92.266pt" version="1.1" viewBox="0 0 600 92.266" xmlns="http://www.w3.org/2000/svg" xmlns:cc="http://creativecommons.org/ns#" xmlns:dc="http://purl.org/dc/elements/1.1/" xmlns:rdf="http://www.w3.org/1999/02/22-rdf-syntax-ns#">
 <metadata id="metadata32">
  <rdf:RDF>
   <cc:Work rdf:about="">
    <dc:format>image/svg+xml</dc:format>
    <dc:type rdf:resource="http://purl.org/dc/dcmitype/StillImage"/>
    <dc:title/>
   </cc:Work>
  </rdf:RDF>
 </metadata>
 <g id="g864" fill="#1a234c">
  <g id="g849" stroke-width=".70677">
   <path id="path3" d="m382.78 17.802c6.898-8.983 17.245-15.259 28.419-17.153 10.326-1.6892 21.274-0.11308 30.405 5.1311 14.001 7.6401 23.557 23.003 23.557 38.996v47.49h-28.893v-47.49c0-4.3801-1.7104-9.1562-4.9686-12.4-4.2053-4.2477-10.743-6.1983-16.531-4.488-7.414 1.8871-12.725 8.6074-12.725 16.888v47.49h-28.787v-47.49c0-10.198 3.3183-18.945 9.5237-26.974z"/>
   <path id="path5" d="m3.0886 2.3528h51.901c11.266 0.23323 22.447 4.5648 30.645 12.353 8.8275 8.1844 14.418 20.03 14.503 32.108v45.451h-28.963v-46.08c-0.01413-6.4881-4.3183-12.701-10.319-15.111-2.833-1.1571-5.8061-1.3745-8.8152-1.3745h-9.6597v34.133c-0.28271 11.563-8.2197 22.447-19.083 26.377-4.0139 1.6278-8.236 2.0555-12.5 2.0558h-10.799v-27.358l8.9159-0.16256c3.0603-0.46647 4.8519-3.5974 4.6894-6.5164v-28.528h-10.517c0.084812-9.1173 0-18.237 0-27.348z"/>
   <path id="path7" d="m109.74 2.3528h28.9v53.339h-28.9z"/>
   <path id="path9" d="m150.52 2.3528h28.886c11.605 0.15549 23.203 4.7274 31.366 13.046 8.6155 8.2974 13.528 20.249 13.4 32.186-7e-3 7.8522-2.2051 15.683-6.2195 22.433-7.6472 13.004-22.122 21.683-37.197 22.248h-30.137v-27.354h26.567c4.7495 0.04241 9.5626-1.7068 12.884-5.1629 4.9615-4.7989 6.6789-12.708 3.8589-19.054-2.5444-6.3962-9.1102-10.842-15.973-10.969h-27.401z"/>
   <path id="path11" d="m233.64 2.3528h28.889v89.913h-28.889z"/>
   <path id="path13" d="m293.5 2.3528h28.9v64.336c-0.0283 6.7213-2.8659 13.372-7.6932 18.044-4.7 4.7777-11.358 7.4979-18.037 7.5332h-22.263v-27.362h13.655c3.0462-0.14135 5.5658-2.972 5.4386-6.004z"/>
   <path id="path15" d="m334.34 2.3528h28.896v53.339h-28.896z"/>
  </g>
  <g id="g867" transform="matrix(.2693 0 0 .2693 298.31 206.31)">
   <rect id="rect2" x="706.9" y="-757.36" width="33.606" height="232.47" stroke-width="4.1438"/>
   <rect id="rect4" x="801.41" y="-731.58" width="33.606" height="155.19" stroke-width="4.1438"/>
   <path id="path6" d="m1042.8-731.52h-37.502v33.582h37.506c24.167 0 43.833 19.642 43.833 43.788 0 24.378-19.667 44.219-43.833 44.219h-37.506v33.577h37.506c42.698 0 77.44-34.899 77.44-77.796 0-42.665-34.746-77.369-77.444-77.369z" stroke-width="4.1438"/>
   <polygon id="polygon8" transform="matrix(4.1438 0 0 4.1438 731.26 -748.87)" points="49.405 43.149 55.255 37.308 40.446 22.511 54.543 8.426 48.694 2.582 28.748 22.511"/>
  </g>
 </g>
</svg>
