<svg width="800.16" height="659.73" enable-background="new -0.844 -0.695 16.156 13.316" version="1.1" viewBox="-.844 -.695 800.16 659.73" xml:space="preserve" xmlns="http://www.w3.org/2000/svg">
<path d="m347.56 531.84c6.3222 27.902 21.422 89.086 37.725 117.14-16.354-28.058-31.402-89.295-37.725-117.14z" fill="none" stroke-width="52.25"/><path d="m304.98 117.81c-16.354 31.141-25.341 66.201-25.446 101.99h40.755c-6.1132-32.291-11.286-66.253-15.309-101.99z" fill="#53bb72" stroke-width="52.25"/><path d="m467.32 554.57h75.188c-13.063-18.392-25.603-37.672-37.568-57.58z" fill="#fed40c" stroke-width="52.25"/><path d="m320.28 219.8h28.215c0.0523-27.902 6.6358-52.564 17.87-73.568-8.2555-36.418-12.958-67.403-14.055-89.87-19.333 17.608-35.321 38.508-47.339 61.446 4.0232 35.739 9.196 69.649 15.309 101.99z" fill="#fed40c" stroke-width="52.25"/><path d="m424.21 87.19c0.67925-26.23 3.971-52.146 10.293-77.696-31.402 9.7708-59.147 26.021-82.189 46.868 1.0972 22.468 5.7475 53.452 14.055 89.87 13.637-25.446 34.067-45.458 57.841-59.043z" fill="#faa628" stroke-width="52.25"/><path d="m546.27 433.92v-0.1045l-41.33 63.17c11.965 19.907 24.505 39.188 37.568 57.58h108.16c-20.325-19.019-40.389-40.233-59.826-63.066h-4.18l1.8288-2.8215c-4.2845-5.1728-8.2555-10.92-12.436-16.25-10.084-12.592-20.169-25.132-29.783-38.508z" fill="#faa628" stroke-width="52.25"/><path d="m546.16 433.87c9.614 13.428 19.698 25.916 29.783 38.508 4.18 5.3818 8.151 11.129 12.54 16.302l60.506-90.131c-17.974-10.189-35.948-23.774-53.086-40.703z" fill="#f37021" stroke-width="52.25"/><path d="m424.21 87.19c21.057-12.018 44.726-19.071 68.709-20.482 0.836-21.579 2.8738-44.047 6.6358-67.35-23.042 0.26125-44.883 3.8665-65.051 10.137-6.3222 25.55-9.614 51.519-10.293 77.696z" fill="#f37021" stroke-width="52.25"/><path d="m650.66 554.57h100.95l-29.208-63.066h-131.57c19.437 22.886 39.501 44.047 59.826 63.066z" fill="#f37021" stroke-width="52.25"/><path d="m502.11 66.446c123.88 0 176.55 124.04 146.25 205.55-4.6418 15.083-18.761 34.455-31.037 53.086l-21.423 32.761c17.138 16.929 35.112 30.514 53.086 40.703 29.966-44.549 34.969-50.078 47.23-74.502 11.623-23.19 25.042-53.712 26.234-86.271 5.7998-148.44-107.37-238.47-219.61-238.47-1.0972 0-2.1422 0-3.2918 0.05225-3.762 23.356-5.7998 45.771-6.6358 67.35 3.0828-0.15675 6.1655-0.26125 9.196-0.26125z" fill="#d42027" stroke-width="52.25"/><path d="m384.03 599.45 44.726-67.664c-11.965-21.527-23.513-44.674-34.59-69.597l-46.659 69.597c6.3222 27.849 21.422 89.086 37.725 117.14 2.299 3.971 4.7025 7.106 7.0538 9.5618h123.15c-14.578-17.452-29.678-37.098-44.778-59.043h-87.067z" fill="#53bb72" stroke-width="52.25"/><path d="m578.09 599.45h-107.43c15.1 21.945 30.201 41.591 44.778 59.043h122.68c-21.057-17.034-41.016-36.993-60.035-59.043z" fill="#fed40c" stroke-width="52.25"/><path d="m480.59 453.67c-12.018-22.886-23.46-46.294-33.963-69.806l-52.459 78.323c11.077 24.923 22.677 48.07 34.59 69.597z" fill="#fed40c" stroke-width="52.25"/><path d="m799.31 658.49-4.18-9.2482c-27.327-9.196-57.945-26.543-89.504-49.794h-127.49c18.967 22.05 38.979 42.009 59.983 59.043z" fill="#faa628" stroke-width="52.25"/><path d="m520.19 394.21c-13.272-21.214-25.603-43.106-36.523-65.522l-37.045 55.176c10.502 23.46 21.945 46.868 33.963 69.806z" fill="#faa628" stroke-width="52.25"/><path d="m391.14 220.48h50.421c-7.315-26.177-12.645-52.616-15.571-79.054-21.475 19.594-34.851 47.234-34.851 77.905z" fill="#faa628" stroke-width="52.25"/><path d="m457.91 220.48c0.836-23.931 20.116-43.054 43.786-43.263-4.4412-20.43-7.315-42.166-8.778-64.999-25.812 2.299-49.115 13.01-66.932 29.208 2.9782 26.439 8.2555 52.877 15.571 79.054z" fill="#f37021" stroke-width="52.25"/><path d="m566.9 323.83-0.1045-0.0522c-2.5602-3.4485-4.9115-7.4718-7.4718-11.129-11.025-15.884-21.266-33.022-30.148-52.25l-45.51 68.291c10.92 22.468 23.251 44.308 36.523 65.522z" fill="#f37021" stroke-width="52.25"/><path d="m795.13 649.24-22.938-49.794h-66.567c31.507 23.251 62.125 40.598 89.504 49.794z" fill="#f37021" stroke-width="52.25"/><path d="m566.8 323.78 29.285-43.23c10.912-17.381 19.308-38.483 19.308-61.27 0-59.408-50.212-107.53-112.08-107.53-3.553 0-7.0538 0.15675-10.398 0.47025 1.3062 22.833 4.389 44.517 8.778 64.999h0.3135c20.028 0 36.888 13.517 42.287 32.057 2.1893 7.7494 2.2682 15.205 0.0514 22.257-3.2561 10.228-9.8917 20.821-9.8917 20.821l-5.2772 8.0465c8.8825 19.228 19.176 36.366 30.201 52.25 2.5602 3.6575 4.9115 7.6808 7.4195 11.129z" fill="#d42027" stroke-width="52.25"/><path d="m347.51 531.78c-28.196 42.317-56.62 84.484-84.959 126.71h129.74c-2.3512-2.4558-4.7025-5.5385-7.0538-9.5618-16.302-28.006-31.402-89.243-37.725-117.14z" fill="#17a9c9" stroke-width="52.25"/><path d="m67.76 252.19v193.33c20.325-9.196 41.434-17.452 61.916-24.61v-142.64c-21.214-7.8898-42.166-16.72-61.916-26.073z" fill="#53347d" stroke-width="52.25"/><path d="m237.29 309.25c-19.437-3.8665-40.467-9.2482-61.942-15.832v112.55c25.289-7.3672 47.155-12.331 61.942-14.473z" fill="#53347d" stroke-width="52.25"/><path d="m102.87 519.82c8.7258-7.524 17.608-14.996 26.804-22.102v-76.807c-20.482 7.106-41.643 15.414-61.916 24.558v106.38c8.0465-7.942 16.72-15.989 25.655-23.878 3.0828-2.717 6.27-5.434 9.4572-8.151z" fill="#404992" stroke-width="52.25"/><path d="m237.29 391.49c-14.734 2.1422-36.653 7.1582-61.942 14.473v59.408c21.109-13.376 42.244-24.505 61.942-31.925z" fill="#404992" stroke-width="52.25"/><path d="m129.68 198.48v-73.255h-70.276c19.228 24.819 43.89 49.847 70.276 73.255z" fill="#256caa" stroke-width="52.25"/><path d="m237.29 224.29c-22.05-19.28-43.289-47.652-61.942-78.689v90.131c21.318 16.407 42.557 31.246 61.942 43.524z" fill="#256caa" stroke-width="52.25"/><path d="m116.2 10.304h-28.476l-35.321 70.146h89.139c-11.443-25.655-20.273-50.238-25.341-70.146z" fill="#256caa" stroke-width="52.25"/><path d="m129.68 497.67c-9.2482 7.0538-18.026 14.578-26.752 22.05-3.1872 2.717-6.3745 5.434-9.4573 8.151-8.8825 7.8898-17.66 15.936-25.707 23.878v107.3h69.127c7.7852-19.385 17.817-39.788 28.947-59.591h-36.157z" fill="#256caa" stroke-width="52.25"/><path d="m237.29 500.38v-66.932c-19.698 7.4195-40.833 18.549-61.942 31.925v117.82c4.9638-8.2032 10.136-16.302 15.361-24.035 15.623-23.251 31.899-43.89 46.581-58.781z" fill="#256caa" stroke-width="52.25"/><path d="m237.29 224.29v-143.84c0-35.06 0.0261-70.146-61.995-70.146h-59.147c5.1205 19.907 13.951 44.491 25.394 70.146h33.806v65.156c18.653 31.037 39.893 59.408 61.942 78.689z" fill="#17a9c9" stroke-width="52.25"/><path d="m175.34 583.2v16.25h-9.5097c-11.129 19.855-21.161 40.154-28.947 59.591h100.4v-158.66c-14.734 14.891-31.01 35.53-46.685 58.781-5.1728 7.733-10.293 15.832-15.257 24.035z" fill="#17a9c9" stroke-width="52.25"/><path d="m67.76 252.19c19.751 9.3528 40.651 18.183 61.916 26.073v-79.786c-26.386-23.408-51.048-48.436-70.276-73.255h-29.626l-30.619 60.767h68.604z" fill="#404992" stroke-width="52.25"/><path d="m237.29 279.26c-19.385-12.279-40.624-27.118-61.942-43.524v57.684c21.475 6.5835 42.453 11.965 61.942 15.832z" fill="#404992" stroke-width="52.25"/>
</svg>
