<svg id="a" width="703.16" height="341.22" version="1.1" viewBox="0 0 186.04 90.281" xmlns="http://www.w3.org/2000/svg">
 <g id="b" transform="translate(-10.983 -192.96)" stroke-width=".61413">
  <path id="c" d="m10.983 215.65v12.941h5.4289v19.026h-5.4289v13.489h19.002v-32.516h11.053v32.516h12.289v-45.457z"/>
  <path id="d" d="m58.232 215.65v12.941h4.9047v13.794h-0.02401v2e-3c0.0061 0.16083 0.01394 0.32157 0.02401 0.4822v1.0507h0.05275c0.79841 9.9093 9.0692 17.547 19.011 17.554 9.6492-4e-3 17.727-7.1959 18.927-16.678 0.0978-0.67325 0.16264-1.625 0.16264-2.9197v-26.227zm17.816 12.941h12.834v14.081c-0.15262 3.4418-2.9852 6.155-6.4304 6.1593-3.3005-4e-3 -6.0649-2.4997-6.404-5.7827z"/>
  <path id="e" d="m108.59 215.65v12.941h6.1233v19.026h-9.1976v13.489h21.496v-45.457z"/>
  <path id="f" d="m133.15 215.65v12.941h26.36v19.026l-26.36 6.8e-4v13.489h39.909v-45.457z"/>
  <path id="g" d="m133.15 192.96v13.514h49.14v63.277l-49.14 6.8e-4v13.489h63.882v-90.28z"/>
 </g>
</svg>
