<svg id="a" enable-background="new 0 0 611.969 611.969" version="1.1" viewBox="0 0 467.91 438.06" xml:space="preserve" xmlns="http://www.w3.org/2000/svg">
	<path id="b" d="m64.014 31.822c26-21.49 59.98-33.04 93.7-31.72 35.74 0.96 70.59 16.64 95.511 42.19 13.189-17.41 29.859-33.94 51.579-39.69 18.49-4.6 39.33-3.32 55.761 6.98 10.399 6.29 17.989 16.35 22.93 27.31 5.34 11.86 7.619 24.83 8.65 37.72 0.52 8.96 0.149 17.95 0.25 26.92 0 35.54-0.011 71.07 0.01 106.61 11.77 0.02 23.869-0.42 35.18 3.45 12.061 3.89 22.65 11.979 29.65 22.54 10.779 15.99 13.39 36.891 7.869 55.26-3.59 12.02-10.76 23.141-20.91 30.631-10.129 7.67-22.819 11.619-35.459 11.959-5.271 0.15-10.541 0.051-15.801 0.051-0.02 15.18 0.11 30.379-0.05 45.569-0.18 13.82-4.53 27.8-13.45 38.521-11.42 14.17-29.66 21.939-47.699 21.93-89.66 0-179.31-0.01-268.96 0.01-15.56-0.06-31.45-4.92-43.31-15.22-17.37-15.08-24.12-41.04-16.13-62.64 3.64-10.961 11.4-19.721 18.64-28.45 14.92-17.41 29.91-34.771 44.1-52.79 29.98-38.4 60.29-76.53 90.4-114.83 4.83-6.04 8.95-12.7 11.74-19.93 3.82-9.3-4.62-20.44-14.44-20.34-6.83-0.45-12.41 5.03-15.07 10.85-2.55 4.9-2.05 10.56-2.64 15.89-2.19 17.91-12.05 35.07-27.28 45-22.35 15.12-55.21 13.729-75.21-4.8-12.81-11.77-19.53-29.07-20.47-46.22-1.13-28.48 6.87-57.24 22.56-81.03 7.709-11.991 17.489-22.551 28.349-31.731zm41.52-6.35c-21.07 8.74-39.66 23.35-52.99 41.87-15.7 21.63-24.31 48.46-23.49 75.23 0.31 10.16 3.28 20.31 8.87 28.83 5.28 8.03 13.46 14.24 22.81 16.64 13.88 4 29.68 1.48 41.3-7.221 10.75-8 17.17-20.99 18.27-34.22 0.35-4.85 0.61-9.77 2.21-14.4 3.56-11.14 12.59-20.86 24.15-23.67 15.58-3.86 32.53 6.53 37.04 21.73 19.16-24.45 38.53-48.74 57.771-73.12 0.969-1.02 1.75-2.57 0.219-3.53-16.01-16.43-36.609-28.47-58.93-33.9-25.47-6.539-52.99-4.349-77.23 5.761zm196.82-5.17c-16.22 6.82-27.81 20.82-38.449 34.3 16.56 21.69 26.879 48.16 28.619 75.44 1.971 26.87-2.899 54.529-16.24 78.119 33.4 0.031 66.801 0 100.2 0.021 0.01-40.2 0.02-80.39-0.011-120.59 0.06-14.47-1.39-29.29-6.989-42.76-4.541-11.26-13.24-21.14-24.801-25.38-13.55-4.88-28.949-4.41-42.33 0.85zm-193.94 230.87c-6.4 8.51-11.97 18.45-12.1 29.37-0.23 8.26 3.59 16.3 9.69 21.779 11.08 10.371 26.87 14.121 41.71 13.681 7.91-0.181 15.87 0.38 23.74-0.271 20.97-25.229 41.62-50.75 62.46-76.09 13.699-16.39 27.199-33.509 35.13-53.549 4.44-11.3 6.81-23.35 7.479-35.46 2.51-29.23-5.84-59.16-22.939-83-48.35 61.211-96.8 122.35-145.17 183.54zm157.67-26.86c-9.37 13.9-20.74 26.28-31.15 39.391-14.37 17.379-28.47 34.99-42.979 52.25 71.6 0.14 143.2-0.01 214.8 0.07 6.9-0.021 13.811-1.471 20.141-4.221 10.069-4.42 17.989-13.25 21.649-23.58 5.44-14.17 4.12-30.811-3.71-43.84-5.57-9.551-15.4-16.17-26.1-18.6-8.141-2.131-16.61-1.431-24.92-1.551-42.58 0.052-85.16-0.089-127.73 0.081zm-235.48 122.11c-5.15 6.08-10.15 12.58-12.54 20.3-4.35 12.51-1.68 26.84 5.98 37.49 5.84 8.22 14.97 13.64 24.67 16.01 8.15 2.38 16.7 1.721 25.08 1.79h214.48c-12.649-10.989-18.91-27.92-19.109-44.42-0.061-15.181 0.01-30.351-0.04-45.521-41.45-0.119-82.9 0.15-124.34-0.18-15.8 0.24-31.88-4.18-44.7-13.58-10.26-7.609-18.05-19.14-19.32-32.05-16.12 20.551-33.25 40.272-50.16 60.161zm254.59-14.389c0.15 15.5-0.02 31.01 0.08 46.52 0.311 12.26 5.23 24.79 14.82 32.73 17.36 14.39 44.92 14.299 62.141-0.271 9.85-8.5 14.51-21.67 14.75-34.44 0.109-14.819 0.039-29.64 0.029-44.459-30.609-0.16-61.21 0-91.82-0.08z" fill="#fff"/>
</svg>
