<?xml version="1.0" encoding="UTF-8"?>
<!-- Generator: Adobe Illustrator 22.0.1, SVG Export Plug-In . SVG Version: 6.00 Build 0)  -->
<svg id="Layer_1" width="492.81" height="202.92" version="1.1" viewBox="0 0 68 28" xml:space="preserve" xmlns="http://www.w3.org/2000/svg" xmlns:cc="http://creativecommons.org/ns#" xmlns:dc="http://purl.org/dc/elements/1.1/" xmlns:rdf="http://www.w3.org/1999/02/22-rdf-syntax-ns#"><metadata id="metadata25"><rdf:RDF><cc:Work rdf:about=""><dc:format>image/svg+xml</dc:format><dc:type rdf:resource="http://purl.org/dc/dcmitype/StillImage"/><dc:title/></cc:Work></rdf:RDF></metadata>
<style id="style2" type="text/css">
	.st0{fill:#F61539;}
</style>
<polygon id="polygon4" class="st0" points="49.2 28 46.3 28 46.3 3 39.4 3 39.4 0 49.2 0" fill="#f61539"/>
<polygon id="polygon6" class="st0" points="43.9 28 41.2 28 41.1 27.8 41.1 8.3 39.4 8.3 39.4 5.4 43.9 5.4" fill="#f61539"/>
<path id="path8" class="st0" d="m66.1 10.4c3.1 4.9 2.1 11.3-2.3 15-2 1.7-4.6 2.6-7.2 2.6h-5.8v-3h5.9c2.2 0 4.3-0.9 5.9-2.5 0.7-0.7 1.3-1.6 1.7-2.5 0.5-1.1 0.7-2.2 0.7-3.4s-0.2-2.3-0.7-3.4c-0.7-1.6-1.9-3-3.4-3.9l-0.1-0.1 2.7-6.2h-12.6v-3h17.1l-3.6 8.2c0.6 0.7 1.2 1.4 1.7 2.2z" fill="#f61539"/>
<path id="path10" class="st0" d="m58 22.7c-0.4 0.1-0.9 0.1-1.3 0.1h-5.8v-3h5.8c1.8 0 3.3-1.5 3.3-3.3 0-1-0.4-1.9-1.1-2.5-0.6-0.5-1.3-0.8-2.1-0.8h-3.2l2.3-5.2h-4.8v-2.9h9.3l-2.3 5.3c0.8 0.2 1.5 0.5 2.2 0.9 0.8 0.5 1.5 1.3 1.9 2.1 1.2 2.1 1.1 4.8-0.3 6.8-1.1 1.3-2.4 2.2-3.9 2.5z" fill="#f61539"/>
<polygon id="polygon12" class="st0" points="21.2 8.1 21.2 15.2 18 15.2 18 8.1" fill="#f61539"/>
<path id="path14" class="st0" d="m23.2 19.4c-0.8 0.4-1.7 0.5-2.7 0.5h-7.7v-11.8h3.2v8.8h2.8c0.5 0 1.8 0 2.3-0.1 0.4-0.1 0.8-0.2 1.1-0.4s0.5-0.5 0.7-0.9 0.3-1.4 0.3-2v-5.4h3v5.3c0 2.1-0.5 4-1.5 4.9-0.4 0.5-0.9 0.9-1.5 1.1z" fill="#f61539"/>
<path id="path16" class="st0" d="m35.3 19.9h-3v-8.7h-4.6v-3.1h5c1.4 0 2.7 1.3 2.7 2.8v9z" fill="#f61539"/>
<polygon id="polygon18" class="st0" points="11.1 19.9 8.2 19.9 8.2 11.2 4.8 11.2 4.8 19.9 0 19.9 0 16.9 1.8 16.9 1.8 8.1 11.1 8.1" fill="#f61539"/>
</svg>
